<?xml version="1.0" encoding="utf-8"?>
<!-- Generator: Adobe Illustrator 16.0.0, SVG Export Plug-In . SVG Version: 6.00 Build 0)  -->
<!DOCTYPE svg PUBLIC "-//W3C//DTD SVG 1.1//EN" "http://www.w3.org/Graphics/SVG/1.1/DTD/svg11.dtd">
<svg version="1.1" id="Layer_1" xmlns="http://www.w3.org/2000/svg" xmlns:xlink="http://www.w3.org/1999/xlink" x="0px" y="0px"
	 width="293.946px" height="313.747px" viewBox="0 0 293.946 313.747" enable-background="new 0 0 293.946 313.747"
	 xml:space="preserve">
<g>
	<circle fill="#FFFFFF" cx="183.786" cy="123.218" r="11.375"/>
	<circle fill="#FFFFFF" cx="109.599" cy="123.218" r="11.375"/>
	<path fill="#FFFFFF" d="M178.079,182.189c-8.256,8.25-19.234,12.795-30.908,12.795c-11.676,0-22.652-4.545-30.908-12.795
		c-2.684-2.684-7.035-2.684-9.719,0c-2.684,2.686-2.684,7.035,0.002,9.719c10.852,10.848,25.279,16.824,40.625,16.824
		s29.775-5.977,40.625-16.824c2.684-2.684,2.688-7.033,0.004-9.719C185.116,179.507,180.765,179.507,178.079,182.189z"/>
	<path fill="#FFFFFF" d="M278.487,58.318c-4.721-22.33-22.578-39.916-45.732-44.848C231.097,13.166,191.667,6,147.169,6
		c-44.496,0-83.928,7.166-85.83,7.52c-22.91,4.889-40.766,22.475-45.447,44.619c-0.307,1.312-7.496,32.658-7.496,76.355
		c0,42.346,6.766,70.219,7.496,73.107c4.783,22.238,22.605,39.74,45.693,44.654c0.977,0.18,15.07,2.732,35.551,4.803l50.721,50.139
		l50.877-50.293c19.693-2.049,33.176-4.494,34.266-4.697c22.914-4.887,40.768-22.471,45.469-44.705
		c0.307-1.373,7.479-34.027,7.479-71.373C285.946,98.943,278.833,60.167,278.487,58.318z M33.271,62.001
		C36.538,46.55,49.017,34.355,64.808,30.98c0.391-0.07,39.553-7.176,82.361-7.176c42.812,0,81.975,7.105,82.119,7.125
		c16.039,3.424,28.512,15.617,31.736,30.852c0.049,0.262,3.318,18.098,5.41,40.664h-38.012
		c-4.955-18.961-22.184-33.012-42.672-33.012c-16.578,0-31.029,9.189-38.58,22.73c-7.551-13.541-22.004-22.73-38.578-22.73
		c-20.49,0-37.717,14.051-42.674,33.012H27.55C29.579,78.169,33.192,62.343,33.271,62.001z M218.034,113.585
		c0,17.803-14.484,32.283-32.283,32.283c-17.803,0-32.283-14.48-32.283-32.283s14.48-32.283,32.283-32.283
		C203.55,81.302,218.034,95.783,218.034,113.585z M140.876,113.585c0,17.803-14.482,32.283-32.283,32.283
		s-32.283-14.48-32.283-32.283s14.482-32.283,32.283-32.283S140.876,95.783,140.876,113.585z M147.856,282.16
		c-8.855-8.756-17.711-17.506-26.566-26.262c-3.068-3.031-6.137-6.064-9.205-9.1c-4.041-3.994-6.371-6.799-12.236-7.383
		c-6.092-0.609-12.178-1.314-18.246-2.123c-5.502-0.73-11.115-1.342-16.551-2.5c-16.037-3.416-28.514-15.611-31.781-31.066
		l-0.092-0.395c-0.07-0.271-6.979-27.484-6.979-68.838c0-6.529,0.172-12.785,0.463-18.693h37.889
		c1.166,23.312,20.443,41.938,44.041,41.938c16.574,0,31.027-9.189,38.578-22.73c7.551,13.541,22.002,22.73,38.58,22.73
		c23.594,0,42.875-18.625,44.039-41.938h37.682c0.412,6.691,0.67,13.562,0.67,20.328c0,35.312-6.984,67.189-7.074,67.598
		c-3.268,15.451-15.74,27.646-31.535,31.02l-15.35,2.354c-6.072,0.809-12.227,1.707-18.318,2.316
		c-5.865,0.584-8.195,3.389-12.236,7.383c-3.068,3.035-6.137,6.068-9.203,9.1C165.569,264.654,156.712,273.404,147.856,282.16z"/>
</g>
</svg>
