<?xml version="1.0" encoding="utf-8"?>
<!-- Generator: Adobe Illustrator 15.0.0, SVG Export Plug-In . SVG Version: 6.00 Build 0)  -->
<!DOCTYPE svg PUBLIC "-//W3C//DTD SVG 1.1 Basic//EN" "http://www.w3.org/Graphics/SVG/1.1/DTD/svg11-basic.dtd">
<svg version="1.1" baseProfile="basic" id="Layer_1"
	 xmlns="http://www.w3.org/2000/svg" xmlns:xlink="http://www.w3.org/1999/xlink" x="0px" y="0px" width="512px" height="512px"
	 viewBox="0 0 512 512" xml:space="preserve">
<g id="_x37_935ec95c421cee6d86eb22ecd11b7e3">
	<path d="M283.122,122.174c0,5.24,0,22.319,0,46.583h83.424l-9.045,74.367h-74.379c0,114.688,0,268.375,0,268.375h-98.726
		c0,0,0-151.653,0-268.375h-51.443v-74.367h51.443c0-29.492,0-50.463,0-56.302c0-27.82-2.096-41.02,9.725-62.578
		C205.948,28.32,239.308-0.174,297.007,0.512c57.713,0.711,82.04,6.263,82.04,6.263l-12.501,79.257c0,0-36.853-9.731-54.942-6.263
		C293.539,83.238,283.122,94.366,283.122,122.174z"/>
</g>
</svg>
