<?xml version="1.0" encoding="utf-8"?>
<!-- Generator: Adobe Illustrator 16.0.0, SVG Export Plug-In . SVG Version: 6.00 Build 0)  -->
<!DOCTYPE svg PUBLIC "-//W3C//DTD SVG 1.1//EN" "http://www.w3.org/Graphics/SVG/1.1/DTD/svg11.dtd">
<svg version="1.1" id="Layer_1" xmlns="http://www.w3.org/2000/svg" xmlns:xlink="http://www.w3.org/1999/xlink" x="0px" y="0px"
	 width="585.715px" height="378.617px" viewBox="0 0 585.715 378.617" enable-background="new 0 0 585.715 378.617"
	 xml:space="preserve">
<g>
	<path fill="#FFFFFF" d="M379.18,286.259c2.277,4.15,3.283,8.723,4.039,13.309c0.42,2.547,1.654,4.393,3.617,5.678
		c8.867,5.811,17.338,12.236,27.02,16.785c5.846,2.746,9.346,7.203,8.779,14.217c-0.428,5.293-0.471,10.543,0.898,15.861
		c1.564,6.078-6.711,14.756-12.197,15.564c-16.59,2.455-33.318,5.084-49.732-1.309c-7.527-2.932-10.164-11.127-5.939-18.654
		c1.84-3.27,4.502-5.729,7.736-7.619c2.729-1.594,2.922-3.508,0.371-5.434c-3.053-2.303-6.105-4.627-9.318-6.689
		c-3.256-2.088-6.438-2.471-10.225-0.303c-7.656,4.385-24.184,3.531-35.441-1.438c0.422,1.592,0.76,2.859,1.262,4.754
		c-14.924-6.945-23.845-18.301-29.289-32.615c-2.42-6.363-4.1-13.006-6.308-19.455c-2.189-6.393-3.878-7.322-10.318-5.48
		c-7.67,2.191-15.308,4.523-22.868,7.064c-9.812,3.297-19.062,7.75-27.588,13.73c-7.912,5.549-8.449,9.189-1.856,16.303
		c5.22,5.629,5.246,7.662-0.498,12.697c-11.536,10.109-23.746,19.336-37.12,26.906c-2.583,1.463-3.711,2.945-3.573,6.195
		c0.523,12.281-6.905,18.203-18.915,15.268c-4.834-1.18-9.454-3.438-14.329-4.203c-7.139-1.119-14.272,0.242-21.174,2.23
		c-8.178,2.357-16.349,4.734-24.954,4.395c-5.568-0.221-10.879-1.258-14.566-6.256c-3.084-4.184-3.453-8.455-1.494-13.148
		c1.991-4.771,6.116-6.104,10.606-6.221c4.083-0.105,7.379-0.938,9.984-4.432c2.498-3.346,6.114-3.957,10.295-3.508
		c21.798,2.336,39.984-5.668,55.889-19.984c2.382-2.143,1.834-3.604-0.429-5.51c-5.344-4.502-10.679-9.033-14.679-14.898
		c-3.042-4.467-4.878-9.357-5.833-15.568c-7.084,8.494-16.249,6.896-25.253,8.221c-14.632,2.15-24.694-5.094-35.494-11.938
		c-1.906-1.207-3.423-0.873-5.115-0.109c-4.925,2.221-9.931,2.33-15.101,0.928c-3.109-0.844-6.249-0.729-9.319,0.484
		c-3.266,1.293-6.689,1.945-10.522,2.146c1.794,3.637,5.071,4.248,8.264,4.727c2.81,0.418,3.638,1.111,1.463,3.559
		c-6.045,6.801-24.35,9.348-31.831,4.318c-2.292-1.541-4.45-3.58-4.408-6.326c0.047-3.137-1.461-4.314-3.907-5.398
		c-5.298-2.348-7.557-6.604-7.666-12.332c-0.095-5.033,0.633-9.967,1.295-14.912c0.274-2.057,1.262-3.877,3.027-4.979
		c4.985-3.104,7.026-7.887,7.64-13.379c0.809-7.234,4.537-11.994,11.444-14.188c3.909-1.242,7.263-3.188,9.808-6.486
		c5.537-7.18,12.781-8.324,21.055-5.889c5.735,1.688,11.377,3.713,17.404,4.314c3.61,0.361,6.933-0.008,10.064-1.93
		c4.225-2.596,8.289-2.303,11.864,1.174c2.528,2.457,3.62,1.689,5.615-1.008c6.277-8.486,5.521-17.82,4.805-27.482
		c-0.515-6.943,0.083-13.857,5.36-19.594c4.151-4.51,3.796-5.969-0.839-9.439c-2.333-1.75-1.854-2.656,0.275-4.348
		c11.166-8.854,19.41-19.57,20.665-34.409c0.146-1.731,1.28-3.933-0.51-5.082c-1.524-0.978-2.676,1.524-4.642,1.681
		c-0.938-3.811,0.257-7.16,1.999-10.349c1.976-3.615,0.621-6.584-0.525-10.263c-2.933-9.416-9.181-15.873-16.424-21.773
		c-3.775-3.074-6.895-6.663-9.659-10.686C87.47,42.799,98.802,15.1,120.076,7.859c13.81-4.701,27.182-2.682,40.869-0.406
		c18.743,3.115,37.601,5.246,56.664,4.806c4.823-0.11,9.57-0.653,14.265-2.091c1.089,2.31-0.076,4.229-1.009,5.73
		c-2.292,3.689-0.858,4.858,2.776,5.143c2.49,0.193,4.967,0.584,7.459,0.722c4.65,0.255,8.225-1.304,10.877-5.505
		c6.446-10.213,16.438-14.844,28-15.989c11.449-1.135,22.482,1.483,33.339,5.028c22.693,7.408,45.811,12.904,69.783,13.535
		c8.27,0.218,16.646-0.065,24.852-1.551c4.451-0.808,4.939,0.846,3.398,4.346c-1.072,2.435-2.17,4.859-3.369,7.232
		c-2.449,4.838-1.412,7.842,3.736,9.702c8.609,3.11,17.594,4.835,26.551,6.541c15.195,2.894,30.436,5.565,46.02,5.14
		c2.141-0.06,4.309,0.353,6.438,0.699c1.564,0.256,3.715,0.109,3.834,2.356c0.096,1.804-1.393,3.051-2.902,3.737
		c-3.479,1.578-7.215,2.674-10.057,5.392c-0.924,0.883-2.352,1.794-2.021,3.239c0.369,1.617,2.09,1.277,3.342,1.514
		c29.611,5.564,59.352,7.787,89.439,4.374c14.365-1.63,12.211,0.983,8.359,10.862c-2.371,6.082-5.178,11.871-9.211,17.055
		c-4.732,6.074-10.736,9.802-18.453,10.636c-5.193,0.562-9.223,1.95-11.086,7.988c-1.766,5.705-6.766,9.627-12.127,12.032
		c-6.98,3.127-12.926,7.395-17.879,13.088c-4.09,4.703-9.428,6.582-15.342,7.426c-4.377,0.621-8.312,2.354-11.766,5.105
		c-9.775,7.793-20.949,11.355-33.383,11.117c-2.707-0.055-5.291,0.355-7.812,1.363c-7.684,3.064-15.631,4.773-23.922,3.824
		c-3.729-0.426-6.664,1.926-10.098,2.279c-14.58,1.514-28.59,0.332-40.98-8.67c-5.65-4.109-12.135-5.213-18.484-2.619
		c-11.41,4.66-22.383,3.33-33.434-0.875c-5.844-2.225-7.477-0.771-7.141,5.418c0.287,5.281,2.635,9.42,5.682,13.508
		c5.547,7.443,10.979,14.828,13.84,24.047c1.559,5.01,6.938,8.244,11.074,11.754c15.205,12.893,30.646,25.453,44.984,39.396
		c16.252,15.801,36.117,22.664,58.973,18.838c10.162-1.701,17.258-7.988,21.584-16.836c5.574-11.395,6.812-23.641,3.676-36.033
		c-2.986-11.811-11.793-19.043-22.555-19.059c-6.848-0.012-11.795,3.375-13.971,9.561c-1.789,5.092,0.441,11.584,5.1,15.686
		c1.488,1.311,4.949,1.572,4.131,4.092c-0.773,2.389-3.957,2.652-6.344,3.408c-1.162,0.367-3.002-0.705-3.428,1.076
		c-0.373,1.561,0.83,2.811,1.893,3.875c3.033,3.033,6.207,2.807,9.256,0.09c1.309-1.166,2.332-2.646,3.531-4.035
		c5.752,9.383,2.488,17.969-7.664,20.658c-1.438,0.381-2.938,0.57-4.426,0.709c-5.605,0.508-5.719,0.74-2.281,5.75
		c-10.896-0.271-19.189-4.885-25.02-13.98c-2.156,1.455-0.574,3.936-1.855,5.439c-5.686-3.211-6.979-7.148-8.557-25.756
		c-1.707-0.979-2.195,1.883-3.789,1.217c2.053-24.16,16.799-41.391,40.086-45.744c10.084-1.885,20.271-1.754,30.025,2.045
		c16.209,6.314,24.102,19.162,27.025,35.553c3.25,18.188,0.164,35.379-8.543,51.678c-9.738,18.229-25.875,25.146-45.412,25.541
		c-20.105,0.404-38.803-5.1-56.217-15.064c-2.365-1.996-4.832-3.836-7.725-5.021c-6.066-4.4-11.514-9.562-17.326-15.289
		c-0.352,5.635-0.676,10.252,0.07,14.854c0.617,3.812,2.637,5.496,6.617,4.322c3.312-0.979,6.564-2.377,10.154-1.922
		C374.995,282.628,377.125,284.384,379.18,286.259z M356.471,320.228c-0.148,1.279,0.434,1.889,1.711,1.854
		c4.6,5.703,11.562,7.98,17.465,11.752c1.895,1.211,3.422,2.248,3.34,4.236c-0.098,2.41-2.344,3.404-4.373,4.035
		c-1.4,0.436-3.031,0.127-4.436,0.557c-5.65,1.729-12.145,8.932-9,14.795c0.699,1.312,0.611,3.902,2.332,3.896
		c1.848-0.012,2.469-2.086,3.154-3.871c0.738-1.916,2.688-3.369,3.412-5.287c0.791-2.098,2.148-2.199,3.863-2.246
		c1.943-0.055,2.377,1.051,2.717,2.752c0.816,4.07,2.723,3.926,5.105,1.035c0.838-1.02,1.586-2.297,2.682-2.877
		c1.98-1.051,4.693-2.209,5.809,0.723c1.787,4.699,3.568,4.803,6.523,1.021c1.277-1.639,3.234-3.775,5.357-1.963
		c2.016,1.717,5.229,3.15,4.324,6.93c-0.867,3.631,0.828,4.822,4.283,4.492c3.367-0.32,7.4-4.818,6.469-8.277
		c-1.559-5.781-1.018-11.541-0.736-17.311c0.178-3.689-1.479-5.863-4.557-7.377c-6.305-3.1-13.131-4.742-19.695-7.105
		c-0.562-1.865-2.543-3.154-2.023-5.508c0.264-1.191-0.293-2.211-1.854-2.012c-7.646-3.301-11.551-9.027-11.807-17.434
		c-0.104-3.424-2.189-5.338-5.869-5.236c-3.656,0.104-7.32,0.104-10.98,0.027c-3.154-0.062-10.67-6.217-11.203-8.807
		c-1.609-7.799-2.012-15.672-2.07-23.617c-0.086-11.652-5.168-21.408-12.348-30.205c-1.547-1.896-3.459-4.109-6.244-2.934
		c-2.535,1.07-1.18,3.797-1.441,5.785c-0.34,2.574,0.865,6.496-1.752,7.314c-5.254,1.646-6.1,6.754-9.09,10.006
		c-4.076,4.436-8.084,7.227-14.125,6.703c-1.486-0.129-3.26-0.602-4.348,0.461c-2.914,2.852-6.648,2.191-9.335,1.068
		c-4.791-2.004-9.479-0.902-14.199-1.152c-1.923-0.1-3.64,0.895-2.541,3.004c2.491,4.787,4.625,9.754,7.07,14.521
		c2.295,4.479,4.446,9.162,5.828,13.762c2.893,9.625,5.766,18.916,13.884,25.566c1.248-1.859-0.508-4.535,1.545-6.527
		c5.094,9.006,12.754,14.658,22.572,17.021c1.314,0.314,7.109,4.135,5.637-3.021c-0.258-1.25,0.73-1.311,1.98-1.094
		c8.068,1.41,15.732,0.033,22.979-3.752c2.969-0.211,0.906,4.287,3.846,4.104L356.471,320.228z M178.338,263.177
		c-0.877-4.311-4.468-3.77-7.409-4.389c1.897,2.512,3.338,5.861,7.455,4.342c0.705,2.076,6.912,5.443,8.68,4.695
		c1.515-0.639,1.24-2.648,0.676-2.73C184.562,264.634,181.967,261.177,178.338,263.177z M410.458,234.458
		c0.035,1.977-0.637,4.869,2.855,1.926c0.578-0.486,1.838-0.17,2.783-0.223c1.271,5.49,4.607,9.17,9.711,11.58
		c0.65-1.727,0.109-2.689-0.566-3.965c-3.008-5.658-4.836-11.711-4.758-18.207c0.018-1.385-0.504-3.412,1.895-3.213
		c4.32,0.354,3.742-2.516,3.789-5.203c0.146-8.037,2.562-15.305,10.58-18.246c6.062-2.223,13.113-2.096,19.158-0.074
		c11.822,3.951,18.244,13.75,20.178,25.301c1.838,10.984,0.805,22.32-3.789,32.912c-7.049,16.258-20.713,25.312-37.486,25.186
		c-3.418-0.025-6.166-2.523-9.6-1.902c-7.895,1.434-14.979-2.371-21.771-4.836c-8.672-3.146-17.635-6.52-25.227-12.252
		c-1.164-0.881-2.547-1.656-3.475-0.424c-1.049,1.395,0.074,2.482,1.303,3.658c8.549,8.152,17.732,15.352,28.85,19.707
		c4.982,1.951,10.359,2.752,15.391,4.309c8.391,2.596,16.719,1.928,24.967,1.354c7.438-0.521,14.818-3.242,20.604-8.131
		c6.352-5.363,11.73-11.619,15.688-19.305c4.848-9.408,5.695-19.564,6.08-29.457c0.232-5.957-1.088-12.688-3.496-18.701
		c-2.557-6.375-5.322-12.93-10.572-17.289c-5.127-4.258-10.504-8.076-17.812-9.627c-9.182-1.947-17.354-0.59-25.752,2.152
		c-7.848,2.561-13.23,8.357-18.143,14.531c-1.926,2.42-4.838,5.111-1.693,8.965c0.936,1.145,0.051,3.164-0.129,4.811
		C409.483,224.675,407.223,229.675,410.458,234.458z M316.522,230.349c1.934-0.207,3.721,0.014,3.998-3.041
		c1.229-13.486-2.582-26.143-8.059-37.855c-4.271-9.141-9.424-17.479-7.992-28.08c0.312-2.348-0.389-3.268-3.029-1.582
		c-1.869,1.191-4.576,0.777-6.83,0.111c-11.197-3.312-21.985-2.771-32.343,3c-7.604,4.232-7.821,4.145-13.18-2.635
		c-0.308-0.393-0.593-0.805-0.938-1.156c-1.87-1.922-4.187-4.271-6.733-2.627c-2.562,1.652-1.276,4.803-0.374,7.244
		c1.552,4.195,0.461,6.18-4.015,6.576c-3.816,0.338-7.38-0.07-8.796-4.475c-0.459-1.428-1.45-1.75-2.688-1.547
		c-1.35,0.223-1.025,1.441-1.227,2.363c-1.955,8.932,6.586,15.336,13.236,15.52c4.627,0.131,8.624-1.645,12.94-2.346
		c1.899-0.307,3.466,0.049,2.459,1.994c-1.718,3.32,0.888,3.389,2.531,3.795c2.225,0.547,4.584,0.545,6.886,0.777
		c-0.006,1.209-0.012,2.422-0.018,3.631c-4.754-0.613-6.517,1.479-6.033,6.182c0.27,2.619,0.064,5.338-0.303,7.961
		c-0.493,3.516-1.72,7.041,3.449,8.232c1.274,0.293,0.977,1.998,0.958,3.084c-0.053,3.182,0.838,6.068,2.071,8.967
		c4.149,9.75,10.591,17.457,19.764,22.842c1.948,1.146,4.09,2.027,5.345-0.482c1.164-2.33,0.959-2.67,2.826-1.508
		c5.013,3.125,10.423,3.639,16.093,2.863c4.188,0.244,5.83-2.045,5.875-5.916c0.18-1.605,2.32-2.244,2.021-4.086
		C318.157,236.375,315.426,232.845,316.522,230.349z M126.225,222.093c0.409,0.697,0.747,1.451,1.241,2.082
		c1.122,1.436,1.759,3.311,0.479,4.473c-1.26,1.143-2.618-0.525-3.702-1.393c-4.05-3.232-8.824-3.23-13.635-3.236
		c-7.287-0.014-7.281-0.043-8.457,6.938c-0.039,0.23-0.442,0.4-0.755,0.668c-1.635-0.873-2.355-2.436-3.326-3.965
		c-3.617-5.695-13.541-8.34-18.517-1.895c-1.446,1.871-1.841,3.256,0.576,4.105c5.51,1.943,7.052,5.973,6.478,11.326
		c-0.155,1.445-0.535,2.938,0.354,4.412c1.637,0.34,2.93-2.586,4.948-0.408c-2.094,3.105-4.73,5.363-8.257,7.08
		c-3.931,1.912-9.752,0.709-11.473,6.656c-0.442,1.525-1.375,0.227-2.218-0.193c-4.421-2.207-7.456-10.676-4.98-15.834
		c1.086-2.266,1.324-4.371,1.329-6.652c0.006-3.479,0.026-6.893,1.968-10.02c1.649-2.656,0.643-4.107-2.38-4.021
		c-5.192,0.152-10.158-1.043-15.188-2.074c-3.79-0.781-7.529-0.246-10.918,2.051c-1.584,1.07-1.461,2.445-1.375,3.914
		c0.062,1.057,0.428,1.934,1.744,1.99c5.288,0.232,5.186,4.521,5.942,8.068c0.421,1.98-0.832,4.57,1.665,5.742
		c2.796,1.311,4.6-0.816,6.367-2.518c0.505-0.484,0.882-0.938,1.927-0.561c0.452,3.051-1.906,4.734-3.828,6.205
		c-3.041,2.326-1.208,4.148,0.745,4.523c3.868,0.736,3.555,3.266,3.554,5.914c0,2.5-0.232,5.012-0.048,7.492
		c0.677,9.139,9.555,13.934,18.019,10.361c6.743-2.846,10.617-7.793,12.798-15.438c2.423,5.531-0.016,9.523-1.622,13.188
		c-1.568,3.576-0.08,5.859,2.399,6.346c6.345,1.25,11.719,5.043,18.054,6.143c13.63,2.361,28.369-0.486,36.861-14.312
		c2.301-3.748,4.22-8.215,8.328-10.766c7.265-4.514,6.941-12.951,0.804-18.309c-1.49-1.303-3.096-4.525-4.732-3.629
		c-4.024,2.215-3.872-0.869-5.158-2.865c-5.424-8.434-6.09-17.855-6.114-27.451c0.572-2.494,1.466-0.717,2.267-0.17
		c0.252,2.178,0.571,5.297,3.535,3.523c3.132-1.873,2.175,0.617,2.283,1.564c0.356,3.129-0.104,6.461,0.787,9.398
		c2.529,8.346,8.348,14.844,12.876,22.094c3.393,5.432,10.121,6.238,13.085,11.604c4.183-1.145,8.193,7.188,12.633,0.213
		c0.383-0.602,2.705-0.521,3.795-0.031c9.883,4.473,20.916,2.178,31.049,5.402c3.192,1.02,6.948,0.301,10.446,0.312
		c5.771,0.014,5.792-0.041,4.017-5.697c5.937-1.137,11.812,0.818,17.824,0.039c6.08-0.791,12.201-0.609,18.319-6.125
		c-5.864,0.895-7.589-4.5-11.784-4.344c-3.613,0.135-5.989-1.654-7.82-4.305c-6.744-9.748-13.151-19.734-21.093-28.605
		c-0.762-0.855-1.658-1.924,0.269-3.189c1.943-1.275,2.488,0.605,2.829,1.104c5.463,7.965,12.698,14.463,18.097,22.576
		c2.567,3.855,7.05,7.447,12.394,8.855c3.185,0.84,3.636-1.74,2.886-2.756c-4.271-5.783-3.7-14.662-11.553-18.127
		c-1.042-0.459-0.867-1.705-0.994-2.658c-0.999-7.492-2.56-14.969-1.718-22.574c0.485-4.383-2.672-6.467-5.469-7.865
		c-2.289-1.146-5.578-0.656-8.369-0.371c-5.998,0.613-9.126-3.305-13.015-6.85c-3.681-3.354-2.47-7.984-4.703-11.49
		c-0.586-0.922-0.289-2.859-1.666-2.648c-1.018,0.158-2.203,1.49-2.668,2.574c-1.625,3.785-4.459,6.803-6.306,10.4
		c-1.111,2.166-2.079,2.805-4.06,1.027c-2.132-1.908-3.192-1.229-4.073,1.457c-1.468,4.471-2.049,8.986-1.902,13.639
		c0.076,2.402-0.188,4.131-3.419,4.076c-2.888-0.051-4.585,1.027-3.14,4.723c1.166,2.98,0.687,6.451,2.328,9.521
		c0.749,1.4,1.199,3.916-0.339,5.1c-1.386,1.066-2.583-1.047-3.683-1.789c-2.151-1.445-4.715-1.902-6.781-3.689
		c-3.722-3.219-7.627-6.184-10.445-10.305c-1.59-2.328-3.197-2.271-4.355,0.311c-1.067,2.379-2.417,2.5-4.147,0.855
		c-4.269-4.062-8.531-8.162-11.761-13.135c-0.98-1.508-1.662-3.838-3.497-3.482c-1.408,0.271-2.82,2.012-2.939,4.141
		c-0.111,1.99-1.632,3.523-3.284,2.031c-5.879-5.311-11.669-10.854-11.659-19.689c0.003-2.717-2.328-3.43-3.965-4.424
		c-1.826-1.109-3.133,0.791-3.996,2.047c-2.972,4.33-5.415,8.605-4.953,14.48c0.763,9.693-0.185,19.328-5.652,27.939
		c-0.819,1.291-0.716,2.859,1.48,3.369c1.557,0.363,3.012,1.166,4.512,1.771C120.542,220.566,123.051,221.957,126.225,222.093z
		 M329.627,150.894c5.658,1.311,11.264,2.973,16.986,3.844c7.045,1.072,14.146,1.195,21.857-3.574
		c-5.266-0.914-9.275-1.502-13.236-2.326c-6.162-1.279-8.256-2.479-10.355-5.725c1.201,0.18,2.18,0.238,3.105,0.475
		c10.561,2.688,21.25,3.68,32.117,2.627c4.684-0.453,8.91-1.787,13.08-6.113c-10.439-1.34-20.307-1.438-28.861-6.725
		c9.967,1.101,19.92,1.173,29.885,0.861c5.229-0.162,10.234-1.354,14.949-3.531c2.326-1.075,6.32-1.883,5.896-4.492
		c-0.416-2.547-4.424-1.698-6.912-2.107c-8.107-1.33-15.75-4.023-24.295-7.611c3.117-0.594,4.865-0.045,6.656,0.311
		c12.689,2.514,25.439,2.518,38.117,0.236c6.318-1.137,12.25-3.563,17.25-9.707c-18.279,1.189-35.244,0.291-51.457-8.326
		c1.008-0.528,1.283-0.805,1.521-0.775c1.316,0.162,2.641,0.342,3.938,0.617c15.613,3.299,31.307,4.068,47.082,1.381
		c7.275-1.24,14.361-3.011,19.824-8.535c0.193-0.193,0.826,0.047,1.518,0.109c-1.488,4.279-3.768,7.617-7.447,9.895
		c-3.027,1.873-5.771,4.14-7.346,7.324c-3.275,6.631-9.07,10.28-15.555,12.518c-4.123,1.422-7.541,3.4-10.461,6.402
		c-4.703,4.838-10.723,7.26-16.945,9.113c-2.674,0.799-5.043,1.717-6.729,3.896c-3.576,4.627-8.545,6.719-14.014,7.967
		c-6.611,1.512-13.268,2.846-18.553,7.656c-1.373,1.25-3.006,2.184-0.295,3.438c10.061,4.646,20.508,7.236,32.934,5.852
		c-4.477-2.869-8.18-4.955-11.779-8.979c7.811,1.805,14.471,3.746,21.355,4.688c7.021,0.957,13.979,1.006,21.057,0.285
		c-5.268-3.279-11.197-5.129-15.846-9.357c17.418,3.029,34.695,8.533,52.043,0.75c-9.189-2.6-18.047-5.566-26.572-9.639
		c5.812-0.34,11.359,1.137,16.982,1.992c10.771,1.639,21.543,1.996,32.193-0.707c2.871-0.73,5.68-1.977,7.922-4.078
		c1.072-1.008,2.521-2.105,1.875-3.748c-0.635-1.607-2.348-0.795-3.566-0.789c-7.16,0.041-14.314,0.07-21.408-1.17
		c-8.6-1.504-17.326-2.558-26.035-7.851c1.812,0,2.438-0.067,3.045,0.011c18.658,2.366,37.33,4.836,56.068,0.889
		c7.834-1.647,15.619-3.629,20.811-10.551c0.777-1.037,1.697-2.271,1.154-3.656c-0.656-1.678-2.311-0.993-3.506-0.963
		c-8.664,0.226-17.311,0.033-25.934-0.896c-9.656-1.04-19.229-2.494-28.482-5.611c14.857-0.285,29.691,0.086,44.5-0.393
		c14.076-0.455,27.811-2.948,39.939-10.9c3.283-2.152,5.758-4.99,7.188-8.68c2.01-5.193,1.775-5.529-3.85-5.361
		c-18.844,0.563-37.49-1.138-56.174-3.656c-15.633-2.106-30.965-6.471-46.881-6.457c-0.992,0.002-2.189,0.193-2.576-0.967
		c-0.475-1.416,0.699-2.074,1.717-2.646c4.068-2.284,7.715-5.038,10.848-9.23c-16.385-1.865-31.889-5.58-47.494-8.83
		c-13.9-2.896-27.068-9.651-41.812-8.275c-0.865,0.081-1.746-0.154-2.02-1.081c-0.371-1.252,0.662-1.694,1.508-2.229
		c4.076-2.574,8.713-4.242,12.326-7.539c0.934-0.852,2.229-1.947,1.494-3.379c-0.619-1.199-2.148-0.746-3.193-0.553
		c-6.982,1.289-13.941,0.721-20.883-0.195c-13.992-1.847-28.059-3.219-41.494-8.09c-12.041-4.365-24.186-8.627-37.121-9.402
		c-12.185-0.73-23.186,1.615-30.423,12.892c-7.758,12.084-9.337,25.604-8.148,39.306c1.073,12.366-0.236,24.176-3.809,35.922
		c-0.886,2.912-2.376,5.736-2.32,9.383c1.536-0.868,2.624-1.631,3.821-2.137c4.315-1.815,9.117-4.277,13.386-1.89
		c5.511,3.083,9.92,1.563,14.988-0.519c6.287-2.584,12.658-0.532,16.066,5.213c1.752,2.953,3.754,4.051,6.812,3.5
		c4.078-0.732,7.047,1.166,9.857,3.684c1.104,0.989,2.15,2.465,3.443,2.756c11.447,2.571,22.771,3.59,32.924-4.203
		c1.146-0.879,2.979-1.568,2.348-3.355c-0.547-1.551-2.354-0.945-3.568-0.915c-12.809,0.312-25.18-2.14-37.211-6.214
		c-8.389-2.842-16.203-6.913-22.699-13.225c1.091-0.139,2.035,0.055,2.924,0.399c16.968,6.632,34.298,11.877,52.652,12.435
		c9.061,0.274,17.994-0.748,25.207-7.254c1.072-0.968,2.914-1.898,2.379-3.461c-0.602-1.755-2.619-0.844-3.973-0.818
		c-15.408,0.281-30.576-1.28-45.332-5.9c-8.477-2.654-16.609-6.059-23.619-11.757c0.9-0.173,1.684-0.038,2.434,0.198
		c13.146,4.156,26.264,8.586,40.041,9.994c18.098,1.851,36.385,3.883,51.348-10.272c0.916,1.593,0.086,2.627-0.461,3.565
		c-4.176,7.166-10.262,12.844-15.559,19.086c-5.07,5.979-11.992,10.279-15.561,17.758c-1.557,3.257-5.223,4.863-7.926,7.188
		c-6.947,5.969-13.389,12.256-21.229,17.396c-4.732,3.107-8.209,7.994-14.502,9.088c-2.6,0.453-4.514,2.707-2.334,5.537
		c3.973,5.162,17.789,8.062,24.303,5.242c-3.059-1.686-6.697-2.449-8.293-5.979C329.385,151.138,329.506,151.017,329.627,150.894z
		 M137.488,104.605c3.817-1.523,3.96-1.517,3.75,2.506c-0.82,15.7-6.652,29.604-15.485,42.391c-0.973,1.408-2.652,2.438-2.383,4.734
		c2.17,0,4.221,0.33,6.12-0.068c4.03-0.846,5.042,0.242,5.16,4.564c0.284,10.416,1.215,20.883,9.648,29.896
		c-0.184-3.25,0.144-5.635,1.141-7.854c0.76-1.695,1.72-3.973,3.33-4.082c1.769-0.125,2.222,2.416,3.176,3.904
		c3.774,5.891,6.877,12.352,12.987,16.9c0.237-1.074,0.317-1.564,0.456-2.041c0.493-1.686,0.112-4.211,2.055-4.676
		c1.615-0.389,2.468,1.908,3.522,3.098c5.501,6.211,11.266,12.123,19.067,17.844c-3.554-8.244-4.763-15.721-4.043-23.986
		c1.392,0.85,2.075,1.309,2.796,1.697c4.961,2.674,4.947,2.596,5.667-2.883c0.882-6.709,2.274-13.295,6.442-19.357
		c0.765,1.246,1.242,2.111,1.803,2.92c2.852,4.104,3.339,4.098,5.647-0.334c2.166-4.16,4.192-9.021,7.911-11.385
		c9.77-6.221,10.82-15.166,9.935-25.217c-0.087-0.99,0.042-1.997,0.03-2.996c-0.019-1.543-0.372-3.059-1.449-4.156
		c-3.346-3.41-5.425-7.589-7.116-11.93c-1.385-3.557-2.542-2.92-4.534-0.467c-3.408,4.197-6.879,8.426-12.824,10.646
		c0-4.907,0-9.28,0-14.636c-10.63,9.664-14.956,20.643-13.141,34.205c-9.159-1.832-16.661-5.688-22.438-12.623
		c-4.328-5.193-7.054-11.145-8.527-17.734c-0.293-1.312,0.099-3.744-2.752-2.914c-0.999,0.291-1.317,2.496-2.689,1.243
		c-1.218-1.112,0.18-2.425,0.335-3.663c0.262-2.084,1.7-2.994,3.115-4.201c5.554-4.737,11.152-9.451,16.366-14.551
		c3.439-3.363,2.555-6.449-1.775-8.056c-5.058-1.875-8.443-5.377-9.771-10.543c-0.808-3.146-1.341-5.918-5.705-3.209
		c0.3-4.153,2.682-6.283,5.079-8.302c6.77-5.696,10.624-5.387,16.446,1.146c0.996,1.118,1.978,2.258,3.062,3.287
		c6.713,6.371,10.463,6.132,16.027-0.975c0.41-0.524,0.799-1.067,1.232-1.572c1.56-1.814,3.047-1.895,4.308,0.295
		c0.661,1.146,1.497,2.309,1.733,3.561c0.715,3.807,1.386,4.971,4.89,1.526c6.212-6.104,8.383-5.815,13.158,0.489
		c1.252,1.654,1.841,1.242,2.944,0.02c3.696-4.094,3.249-8.475-1.176-11.979c-2.207-1.748-4.63-3.43-6.276-5.645
		c-7.919-10.662-20.034-11.768-31.573-14.178c-1.194-0.249-2.574,0.479-3.881,0.659c-7.792,1.075-14.966,5.978-23.564,3.272
		c0.521,4.049,4.201,7.531-0.123,11.17c-5.178,4.356-7.5,10.568-9.119,16.885C143.312,79.625,140.483,92.082,137.488,104.605z
		 M204.713,117.046c6.271-4.487,9.27-10.367,11.933-16.424c2.409-5.479,0.812-13.135-3.475-17.196
		c-3.615-3.427-7.616-6.279-12.279-8.222c-7.132-2.969-15.244-1.039-20.282,4.865c-3.183,3.729-4.944,8.217-7.033,12.524
		c-2.35,4.849-1.976,5.435,3.25,5.378c6.844-0.072,13.481,0.598,19.996,3.089c5.093,1.947,7.148,5.502,7.576,10.505
		C204.536,113.177,204.587,114.795,204.713,117.046z M183.69,16.197c-3.348-1.515-6.593,0.114-9.897-0.263
		c-9.896-1.129-19.83-1.837-29.69-3.399c-8.595-1.361-17.148-0.362-24.291,4.949c-12.697,9.443-14.627,23.822-5.484,36.898
		c4.711,6.736,12.297,10.922,16.209,18.453c0.598-5.977-2.109-10.641-5.845-14.613c-5.269-5.602-8.235-11.58-5.497-19.379
		c0.344-0.979,0.832-3.257-1.613-2.053c-3.783,1.865-2.187-1.164-2.032-2.24c1.144-7.957,7.051-14.314,14.938-16.189
		c6.723-1.6,13.509-1.269,20.328-0.687C161.836,18.615,172.839,18.703,183.69,16.197z M294.418,115.472
		c-1.876-4.068-1.869-8.607-7.072-9.357c-2.615-0.375-5.283-0.539-7.926-0.529c-5.485,0.02-7.895,3.779-5.863,8.85
		c1.023,2.557,1.61,5.34,2.955,7.7c2.378,4.176,1.782,8.61,1.77,13.009c-0.008,2.52,1.332,2.998,3.463,3.018
		c2.345,0.021,2.859-1.211,2.545-3.162c-0.232-1.454-0.273-3.041-0.914-4.309c-2.165-4.287-1.596-8.818-0.854-13.115
		C283.323,112.917,287.057,112.289,294.418,115.472z M260.406,105.939c-7.993-0.084-12.346,7.372-8.223,14.385
		c2.896,4.924,4.974,10.105,6.148,15.668c0.29,1.371-0.48,3.418,1.497,3.76c2.75,0.48,3.746-2.201,5.31-3.737
		c1.39-1.366,0.813-2.585-0.453-3.808c-5.724-5.524-7.61-11.846-4.383-19.512c0.82-1.949,1.646-2.847,3.535-2.277
		c1.151,0.349,2.353,1.15,2.88-0.409c0.444-1.312-1.245-1.663-1.839-2.522C263.705,105.783,262.032,106.045,260.406,105.939z
		 M236.093,127.923c0.109-1.605,0-3.646,0.443-5.562c0.539-2.332,1.802-4.438,4.688-3.97c1.245,0.201,2.467,1.293,3.038-0.647
		c0.437-1.485,0.167-2.682-1.307-3.844c-3.449-2.722-9.011-1.211-10.494,2.879c-3.184,8.783-2.606,17.813-2.104,26.855
		c0.062,1.121-0.151,2.383,1.646,2.432c4.223,0.117,7.969-4.936,5.819-8.697C236.09,134.333,236.472,131.359,236.093,127.923z
		 M32.042,230.855c-5.07,1.113-9.036,2.943-11.909,6.965c-2.985,4.174-2.048,8.539,2.523,10.682
		c1.729,0.812,3.208,2.254,4.622,3.602c1.165,1.107,2.027,3.016,3.958,1.807c2.026-1.271,1.288-3.555,0.388-4.859
		c-3.764-5.457-3.114-10.285,1.441-14.793c0.798-0.791,1.451-1.514,0.573-2.471C33.123,231.224,32.266,230.978,32.042,230.855z
		 M164.061,104.154c-2.664,0.842-3.679,3.07-3.468,6.035c0.69,9.686,5.445,17.26,12.478,23.562c0.861,0.771,2.306,2.023,3.523,0.951
		c1.262-1.111,0.026-2.646-0.595-3.58c-5.086-7.645-8.861-15.742-9.475-25.06C166.44,104.763,166.114,103.732,164.061,104.154z
		 M255.325,143.568c-0.809-8.546-2.293-15.671-9.909-19.684c-1.68-0.885-3.405-1.653-4.95,0.089
		c-2.472,2.788,0.365,13.72,4.054,14.825C248.02,139.849,251.349,141.177,255.325,143.568z M157.332,337.111
		c1.493,1.5,2.98,1.201,4.03,0.654c6.399-3.334,13.177-5.9,18.999-10.426c2.421-1.881,4.333-3.812,5.412-6.512
		c0.885-2.215,0.329-4.602-1.896-5.527c-1.898-0.791-2.517,1.467-3.378,2.756c-3.583,5.359-7.914,9.73-13.922,12.576
		C163.273,332.201,159.802,334.064,157.332,337.111z M71.547,254.546c1.561-3.559,3.672-5.846,5.954-8.023
		c2.654-2.535,3.988-5.637,3.711-9.377c-0.14-1.885-0.787-3.225-2.892-3.312c-4.195-0.18-10.033,5.379-9.739,9.645
		C68.827,247.029,69.206,250.662,71.547,254.546z M315.608,121.438c0.502,3.386,0.893,6.142,1.33,8.89
		c0.258,1.621,0.92,2.793,2.896,2.64c5.068-0.394,9.812-1.703,13.902-4.835c0.604-0.461,1.305-1.359,1.25-1.996
		c-0.113-1.379-1.459-1.023-2.367-1.037C326.948,125.014,321.487,123.928,315.608,121.438z M309.784,145.083
		c2.295-6.369,3.113-11.758,1.191-17.279c-0.688-1.967-2.098-3.493-4.41-3.266c-2.305,0.229-2.58,2.26-2.977,4.027
		c-0.523,2.364,0.055,4.646,1.027,6.738C305.999,138.261,307.653,141.089,309.784,145.083z M14.13,254.136
		c-5.095,4.146-7.611,13.549-5.477,18.271c0.855,1.891,2.29,2.068,3.508,0.793c2.135-2.238,4.836-3.051,9.654-3.771
		C13.883,266.16,14.392,260.318,14.13,254.136z M272.916,133.932c2.304-5.897,1.241-11.21-2.806-14.772
		c-1.516-1.334-3.282-2.812-5.324-1.689c-2.209,1.215-1.329,3.555-0.941,5.428C264.927,128.121,269.806,130.166,272.916,133.932z
		 M293.271,136.619c1.691-5.41,1.253-10.547-1.209-15.405c-1.037-2.043-3.113-3.369-5.396-2.72
		c-2.018,0.574-1.264,2.795-1.354,4.371C284.952,129.189,291.024,131.732,293.271,136.619z M180.326,72.833
		c-1.981,0.322-3.101,0.471-4.207,0.688c-4.76,0.942-7.26-0.544-8.418-5.146c-0.278-1.106-0.29-2.287-0.365-3.438
		c-0.083-1.278-0.839-1.651-1.978-1.635c-1.216,0.017-1.621,0.647-1.833,1.815c-0.705,3.896,1.816,10.354,4.769,11.89
		C171.931,78.9,176.196,77.656,180.326,72.833z M181.689,129.482c0.25-0.511,0.474-0.933,0.668-1.367
		c2.856-6.388,2.852-6.381-2.355-8.719c-0.438-0.195-0.752-0.652-1.18-0.885c-0.811-0.439-1.108-2.341-2.667-0.749
		c-1.021,1.042-1.875,2.062-1.149,3.403C176.659,124.22,177.322,128.059,181.689,129.482z M25.204,266.585
		c0-3.5,0.031-6.463-0.02-9.424c-0.014-0.814-0.311-1.621-0.412-2.439c-0.222-1.803-1.384-2.535-3.027-2.688
		c-1.175-0.105-1.684,0.596-2.08,1.652C18.028,258.054,20.258,263.896,25.204,266.585z M233.968,150.041
		c-3.288,4.402-4.539,8.561-3.692,13.23c0.42,2.32,2.254,2.629,4.206,2.562c1.553-0.051,2.133-0.891,1.535-2.305
		C234.293,159.46,234.922,155.027,233.968,150.041z M310.247,117.701c-1.287-2.473-3.396-3.614-6.523-3.61
		c-2.875,0.004-4.393,1.479-4.727,3.887c-0.252,1.806,1.834,4.396,2.793,3.666c2.627-1.999,6.396-0.271,8.447-3.132
		C310.315,118.402,310.247,118.188,310.247,117.701z M26.69,282.904c-0.935-4.129-2.916-7.1-6.965-8.258
		c-1.474-0.42-3.064-0.191-4.013,1.121c-0.961,1.33,0.211,2.467,0.866,3.531C18.916,283.115,22.494,283.503,26.69,282.904z
		 M85.37,359.253c-0.348-1.182,0.469-3.512-1.287-4.086c-2.16-0.707-2.781,1.828-3.742,3.176c-1.946,2.732-2.021,5.826-0.91,8.916
		c0.384,1.068,1.328,0.695,2.053,0.314C84.713,365.878,85.345,362.9,85.37,359.253z M106.852,355.197
		c-4.107,2.68-5.266,6.146-5.311,10.135c-0.011,0.932-0.293,2.291,0.915,2.523c0.812,0.154,2.033-0.285,2.648-0.893
		C108.454,363.675,108.65,359.792,106.852,355.197z M161.269,367.998c2.205-3.408,2.437-6.631,2.212-9.887
		c-0.117-1.689,0.107-4.098-2.619-3.832c-2.412,0.234-3.194,2.309-3.022,4.387C158.1,361.8,159.27,364.707,161.269,367.998z
		 M95.978,360.359c-0.539-1.428,0.134-3.816-1.69-4.248c-2.195-0.521-2.902,1.828-3.52,3.424c-0.971,2.51-1.076,5.18-0.227,7.785
		c0.26,0.799,1.015,0.748,1.599,0.328C94.596,365.878,95.544,363.292,95.978,360.359z M34.863,246.89
		c2.145-2.574,4.893-4.584,6.06-7.764c0.542-1.471,0.575-3.137-0.703-4.137c-1.463-1.145-2.299,0.613-3.28,1.293
		C32.98,239.027,34.478,243.046,34.863,246.89z M386.93,353.384c-3.311,2.494-4.49,5.258-4.479,8.535
		c0.004,1.197-0.451,2.992,1.479,3.162c1.619,0.146,2.172-1.393,2.561-2.633C387.336,359.742,387.594,356.958,386.93,353.384z
		 M396.321,361.437c0.414,1.287-0.648,3.904,1.303,3.598c3.051-0.482,3.531-3.59,3.697-6.305c0.088-1.41,0.312-3.877-1.443-3.613
		C396.624,355.607,396.891,358.929,396.321,361.437z M374.475,359.322c-0.568-1.225,0.938-4.098-1.457-3.697
		c-2.908,0.486-3.316,3.738-3.48,6.355c-0.068,1.184-0.896,3.646,1.48,3.256C373.948,364.751,374.151,361.88,374.475,359.322z
		 M38.174,292.634c-0.843-2.305-2.163-3.959-3.668-5.445c-1.142-1.129-2.722-1.748-3.876-0.355c-1.034,1.246-0.632,2.918,0.637,3.98
		C33.19,292.423,35.438,293.095,38.174,292.634z M177.947,107.07c1.75,1.836,1.727,5.777,5.246,4.873
		c1.983-0.511,1.574-3.058,1.061-4.264C182.84,104.359,180.236,106.71,177.947,107.07z M299.624,141.615
		c2.217,0.234,2.271-0.965,2.477-2.16c0.357-2.125-0.746-3.637-2.377-4.404c-1.271-0.598-2.428,1.621-2.316,1.877
		C298.108,138.607,298.061,140.82,299.624,141.615z M240.506,147.093c0.134,1.146-0.588,2.908,1.557,2.834
		c2.095-0.068,3.791-1.223,4.116-3.285c0.292-1.863-1.271-2.324-2.913-2.416C241.176,144.107,240.161,144.898,240.506,147.093z
		 M208.33,75.593c5.84,1.958,6.857,1.307,6.499-4.137C213.81,74.46,210.59,73.58,208.33,75.593z M23.869,292.208
		c1.168-0.176,2.276-0.385,2.198-1.982c-0.057-1.17-0.67-1.736-1.77-1.938c-1.189-0.215-1.932,0.221-1.966,1.445
		C22.301,290.839,22.146,292.134,23.869,292.208z"/>
	<path fill="#FFFFFF" d="M392.223,321.99c-5.775-0.512-6.854-2.596-3.885-7.521c1.564-0.195,2.121,0.822,1.857,2.018
		C389.68,318.835,391.659,320.125,392.223,321.99z"/>
	<path fill="#FFFFFF" d="M352.487,315.937c0.203-2.199,2.408-1.936,3.641-2.768c2.441-1.646,2.346,0.752,2.107,1.959
		c-0.332,1.697-1.24,3.281-1.904,4.912C353.393,320.224,355.456,315.726,352.487,315.937z"/>
	<path fill="#FFFFFF" d="M262.37,186.394c0.614-3.104,1.758-1.262,2.778-0.287c1.252,1.189,1.718,2.59,0.086,3.676
		c-0.704,0.469-1.907,0.186-2.883,0.242C262.358,188.814,262.364,187.603,262.37,186.394z"/>
	<path fill="#FFFFFF" d="M356.471,320.228c1.229,0.014,1.83,0.604,1.713,1.854C356.905,322.117,356.323,321.509,356.471,320.228z"/>
	<path fill="#FFFFFF" d="M331.583,30.289c-8.846,1.078-17.615,1.263-26.414-0.683c-5.6-1.237-11.061-3.138-17.144-1.901
		c-7.174,1.459-12.037,5.037-14.803,11.772c-3.429,8.351-5.428,17.06-6.877,25.923c-0.158,0.967-0.027,2.016-1.349,3.104
		c-1.039-3.146-0.609-6.187-0.318-9.046c0.654-6.424,0.966-12.912,2.553-19.217c4.524-17.977,14.303-22.533,31.51-18.14
		C309.631,24.884,320.221,28.971,331.583,30.289z"/>
	<path fill="#FFFFFF" d="M416.543,151.402c0.139,0.051,0.271,0.1,0.406,0.148c-0.182,0.123-0.357,0.258-0.553,0.354
		c-0.021,0.012-0.146-0.188-0.227-0.287C416.297,151.546,416.42,151.474,416.543,151.402z"/>
	<path fill="#FFFFFF" d="M329.26,151.255c-0.189-0.176-0.562-0.486-0.547-0.51c0.381-0.502,0.654-0.227,0.908,0.15
		C329.506,151.017,329.385,151.138,329.26,151.255z"/>
	<path fill="#FFFFFF" d="M338.495,296.207c-6.287-6.957-10.287-14.834-9.846-24.494c0.172-3.734,0.535-4.219,4.086-4.066
		c2.42,0.102,1.664-1.711,1.707-2.709c0.271-6.396,0.178-12.771-2.355-18.822c0.201-1.26,0.727-2.188,2.207-2.107
		c1.391,5.473,4.084,10.465,5.1,16.145c1.061,5.939,0.986,11.801,0.873,17.725c-0.012,0.471-0.15,1.23-0.447,1.361
		c-7.326,3.188-2.184,7.682-1.213,11.688c0.301,1.238,1.898,1.865,1.83,3.367C340.313,295.458,339.754,296.189,338.495,296.207z"/>
	<path fill="#FFFFFF" d="M334.295,244.003c-1.48-0.078-2.004,0.852-2.205,2.109c-3.268-1.209-0.758-5.023-3.016-6.689
		c0.275-0.326,0.492-0.838,0.838-0.947c0.834-0.271,1.67-0.084,2.105,0.771C332.815,240.814,333.54,242.417,334.295,244.003z"/>
	<path fill="#FFFFFF" d="M338.495,296.207c1.26-0.018,1.818-0.748,1.941-1.916c1.189,1.674,2.385,3.348,3.764,5.283
		C340.567,300.597,339.44,298.544,338.495,296.207z"/>
	<path fill="#FFFFFF" d="M194.286,77.246c1.228,0.373,3.715-1,3.663,1.606c-0.044,2.2-2.296,0.994-3.58,1.241
		c-0.636,0.123-1.303,0.158-1.952,0.13c-1.329-0.062-3.406,2.36-3.811-0.644c-0.286-2.125,1.89-2.256,3.561-2.33
		C192.821,77.221,193.477,77.246,194.286,77.246z"/>
</g>
</svg>
