<?xml version="1.0" encoding="utf-8"?>
<!-- Generator: Adobe Illustrator 16.0.0, SVG Export Plug-In . SVG Version: 6.00 Build 0)  -->
<!DOCTYPE svg PUBLIC "-//W3C//DTD SVG 1.1//EN" "http://www.w3.org/Graphics/SVG/1.1/DTD/svg11.dtd">
<svg version="1.1" id="Layer_1" xmlns="http://www.w3.org/2000/svg" xmlns:xlink="http://www.w3.org/1999/xlink" x="0px" y="0px"
	 width="188px" height="63px" viewBox="0 0 188 63" enable-background="new 0 0 188 63" xml:space="preserve">
<g>
	<path fill="#010101" d="M174.537,46.074c0.27,0.363,0.686,0.633,1.259,0.742c0.608,0.12,1.122-0.046,1.536-0.51
		c0.41-0.461,0.665-0.896,0.76-1.312c0.045-0.417-0.08-0.927-0.377-1.515c-0.291-0.592-0.77-0.949-1.428-1.07l0.08-0.071
		c-0.658-0.126-1.191,0.092-1.592,0.663C174.064,44.008,173.942,45.271,174.537,46.074z"/>
	<path fill="#010101" d="M48.107,27.184c-0.627-0.306-1.208-0.432-1.75-0.381c-1.139,0.1-1.995,0.418-2.564,0.953
		c-0.57,0.532-0.938,1.18-1.096,1.943c-0.331,0.101-0.6,0.201-0.819,0.303c-0.218,0.104-0.462,0.305-0.732,0.607
		c-0.486,0.561-1.031,1.424-1.623,2.592c-1.729,3.377-2.736,9.976,0.688,12.807c0.645,0.533,1.462,0.827,2.438,0.876
		c4.001,0.2,6.471-2.737,7.652-6.254h0.319c1.903,0.265,2.819,0.082,3.952-0.374c0.676-0.272,1.259-0.587,1.771-0.933
		c0.04,2.229,0.732,4.041,2.096,5.429c1.49,1.523,3.395,2.232,5.707,2.132c2.023-0.049,3.768-0.534,5.234-1.448
		c1.469-0.913,2.689-1.918,3.648-3.008c0.523-0.593,0.969-1.169,1.351-1.731c0.01,0.69,0.075,1.308,0.202,1.845
		c0.587,2.488,3.107,5.698,5.812,3.391c0.629-0.535,1.182-1.105,1.668-1.715c0.525-0.711,1.055-1.549,1.584-2.513
		c0.146,0.864,0.436,1.624,0.867,2.286c0.385,0.559,0.893,1.09,1.517,1.598c2.611,2.121,6.982-0.463,8.81-2.444
		c0.355,0.536,0.74,1.043,1.184,1.491c2.106,2.13,5.168,2.33,7.609,0.839c1.375-0.839,2.529-1.802,3.465-2.894
		c0.615-0.712,1.13-1.406,1.568-2.086c0.1,0.891,0.357,1.806,0.781,2.743c0.43,0.964,1.057,1.815,1.877,2.551
		c2.771,2.485,6.166-1.239,7.861-3.438c0.438-0.568,0.834-1.122,1.188-1.664c0.48,1.322,1.107,2.497,1.909,3.494
		c1.203,1.498,3.029,2.323,5.488,2.473c1.781,0.104,3.359-0.264,4.73-1.102c1.201-0.734,2.455-2.298,3.211-3.485
		c0.559-0.878,0.934-1.69,1.434-2.815c0.704-1.585,1.127-2.573,1.613-4.112c0.01-0.02,0.025-0.025,0.033-0.05
		c0.344-1.106,0.768-2.338,0.916-2.338c0.291,0,0.445,0.318,0.463,1.01c0.055,2.126-0.266,4.089-0.402,6.198
		c-0.072,1.112-0.082,2.157-0.035,3.124c0.045,0.97,0.207,1.797,0.473,2.481c0.27,0.685,0.742,1.058,1.428,1.112
		c0.586,0.057,1.131-0.227,1.641-0.855c0.512-0.63,0.996-1.412,1.463-2.354c0.461-0.941,0.896-1.982,1.314-3.123
		c0.74-2.056,1.324-4.131,2.15-6.163c0.277-0.683,0.48-0.993,0.631-0.993c0.291,0,0.471,0.307,0.535,0.969
		c0.275,2.826-0.326,5.576-0.104,8.369c0.07,0.883,0.252,1.624,0.547,2.227c0.295,0.598,0.752,0.896,1.389,0.896
		c0.582,0,1.141-0.342,1.676-1.024c0.535-0.687,1.035-1.542,1.496-2.567c0.467-1.029,0.881-2.154,1.244-3.379
		c0.365-1.229,0.742-3.244,1.092-5.077c0.354-1.835,0.641-3.364,0.855-4.508c0.129-0.686,0.231-1.14,0.315-1.397
		c0.026-0.053,0.051-0.087,0.072-0.09c0.413-0.054-0.217,4.243-0.236,4.493c-0.191,2.426-0.315,4.864-0.272,7.297
		c0.021,1.442,0.207,2.104,0.549,3.216c0.338,1.112,0.861,2.041,1.572,2.781c0.703,0.741,1.713,1.143,3.029,1.199
		c1.408,0.054,2.711-0.402,3.904-1.371c1.193-0.97,2.227-2.054,3.104-3.25c0.879-1.199,1.58-2.369,2.117-3.509
		c0.535-1.14,0.879-1.853,1.021-2.142c0.646-1.614,1.245-2.995,0.882-4.766c-0.076-0.371-0.209-0.586-0.404-0.641
		c-0.191-0.057-0.361,0.084-0.512,0.428c-0.439,0.912-0.975,2.023-1.605,3.336c-0.633,1.312-1.363,2.566-2.191,3.766
		c-0.826,1.197-1.713,2.224-2.664,3.079c-0.951,0.854-1.963,1.228-3.031,1.112c-0.973-0.055-1.691-0.428-2.154-1.112
		c-0.465-0.683-0.779-1.51-0.947-2.481c-0.17-0.967-0.221-1.98-0.148-3.503c0.091-1.917,0.325-3.822,0.447-5.737
		c0.063-0.99,0.511-3.15-0.043-4.073c-0.639-1.063-1.35-1.654-2.158-1.769c-0.803-0.112-1.377,0.477-1.715,1.769
		c-0.145,0.611-0.438,1.846-0.875,3.707c-0.785,3.342-1.544,6.823-2.775,10.033c-0.438,1.141-0.73,1.686-0.877,1.628
		c-0.195-0.058-0.305-0.53-0.326-1.412c-0.067-2.77,0.326-5.498,0.326-8.259c0-0.968-0.186-1.726-0.549-2.268
		c-0.365-0.541-0.777-0.885-1.242-1.027c-0.463-0.141-0.924-0.098-1.385,0.129c-0.465,0.229-0.838,0.629-1.133,1.199
		c-0.146,0.285-0.449,1.099-0.912,2.438c-0.951,2.743-1.933,5.456-3.174,8.086c-0.539,1.143-0.951,1.626-1.246,1.453
		c-0.193-0.055-0.266-0.51-0.215-1.369c0.159-2.697,1.039-6.103,0.307-8.733c-0.246-0.74-0.627-1.405-0.998-1.833
		c-0.369-0.429-0.711-0.668-1.029-0.727c-0.314-0.056-0.616,0-0.913,0.171c-0.958,0.554-1.305,2.229-1.569,3.208
		c-0.469,1.734-1.057,3.455-1.777,5.105c-0.734,1.679-1.398,3.04-2.406,4.38c-1.207,1.604-3.351,2.652-5.413,2.422
		c-1.135-0.127-2.061-0.311-2.995-1.081c0.454,0.375,2.097-0.475,2.522-0.692c0.798-0.407,1.462-0.984,1.926-1.756
		c0.913-1.518,0.918-3.443,0.462-5.108c-0.321-1.173-0.779-2.292-1.189-3.435c-0.622-1.732-1.285-3.557-1.318-5.371
		c-0.026-1.437-0.053-3.089-1.932-3.089c-0.674,0-1.105,0.303-1.301,0.914c-0.191,0.608-0.406,1.318-0.65,2.131
		c-0.942,2.667-1.686,5.33-2.674,8c-0.328,0.887-0.412,1.095-0.744,1.845c-0.627,1.375-1.295,2.638-2.082,3.608
		c-0.971,1.213-3.648,4.437-5.414,2.562c-0.523-0.554-0.879-1.229-1.061-2.021c-0.189-0.792-0.281-1.664-0.281-2.604
		c0-0.941,0.047-1.816,0.145-2.629c0.325-2.699,1.314-4.094-0.686-4.152c-2.313-0.068-1.799,2.39-2.027,3.971
		c-0.315,2.178-1.403,3.534-2.742,5.217c-0.085,0.106-0.175,0.204-0.262,0.308c-1.944,2.115-3.997,3.937-6.975,2.108
		c-0.325-0.2-2.346-1.909-2.054-2.319c0.516-0.725,1.146-1.739,1.899-3.067c2.269-3.996,4.164-8.253,5.561-12.645
		c0.764-2.393,1.411-5.288,1.629-7.779c0.29-3.312,0.75-6.159-0.215-9.372c-1.677-5.583-6.564-2.364-8.527,1.03
		c-3.268,5.65-5.02,12.598-5.02,19.131c0,4.332-0.177,8.152,1.117,12.378c0.063,0.206,0.146,0.394,0.217,0.591
		c0.332,0.919-5.853,3.353-7.064,0.734c-0.389-0.84-0.566-1.78-0.539-2.818c0.023-1.041,0.277-2.073,0.756-3.474
		c0.049-0.254-0.064-0.477-0.326-0.669c-0.264-0.189-0.566-0.327-0.902-0.411c-2.242-0.58-1.683,1.163-2.17,2.525
		c-0.265,0.74-0.587,1.474-0.972,2.369c-0.459,1.067-0.986,2.009-1.592,2.82c-1.51,2.04-3.217,1.209-3.607-0.993
		c-0.389-2.196,0.021-4.403,0.861-6.427c0.336-0.814,0.725-1.536,1.154-2.17c0.439-0.636,0.906-1.131,1.408-1.486
		c0.51-0.355,1.025-0.535,1.56-0.535c1.465,0,2.253,1.017,2.268,2.355c0.996,0.174,1.854-1.121,1.959-1.983
		c0.136-1.116-0.721-2.263-1.594-2.931c-0.527-0.406-1.32-0.633-2.383-0.686c-3.161-0.157-5.346,3.199-6.5,5.637
		c-0.454,0.958-0.792,2.041-1.017,3.239c-0.183,0.363-0.371,0.74-0.571,1.149c-1.256,2.566-2.806,4.479-5.337,5.881
		c-1.253,0.694-2.7,0.992-4.339,0.912c-2.122-0.152-3.557-0.744-4.303-1.811c-1.852-2.646-1.027-7.588,0.719-10.088
		c0.949-1.36,1.959-2.641,3.833-2.437c0.482,0.053,0.815,0.23,1.009,0.535c0.684,1.078-0.021,2.846-0.723,3.732
		c-0.242,0.306-0.398,0.686-0.47,1.143c-0.068,0.456-0.01,0.762,0.184,0.912c0.387,0.257,0.758,0.305,1.117,0.155
		c0.361-0.155,0.636-0.356,0.83-0.61c1.206-1.588,2.133-3.281,2.133-5.303c0-1.117-0.324-2.031-0.971-2.743
		c-0.65-0.711-1.607-1.091-2.854-1.142c-1.352-0.051-2.555,0.292-3.613,1.027c-2.202,1.53-3.625,4.082-4.371,6.627
		c-0.229,0.781-0.395,1.529-0.511,2.254c-0.045,0.207-0.09,0.413-0.127,0.616c-0.054,0.068-0.108,0.136-0.161,0.187
		c-1.338,1.289-2.761,1.807-4.539,1.446c-0.299-0.061-0.601-0.126-0.928-0.23c0.491-2.251,0.768-4.262,0.17-6.557
		c-0.299-1.144-0.719-2.068-1.263-2.778C49.31,27.996,48.727,27.487,48.107,27.184z M47.73,30.925
		c1.23,1.823,1.314,4.234,0.907,6.323c-1.415-0.908-2.408-1.948-3.047-3.508c-0.29-0.708-0.356-1.44-0.212-2.189
		c0.147-0.739,0.595-1.137,1.334-1.194C47.135,30.371,47.479,30.553,47.73,30.925z M41.332,36.712
		c0.262-0.53,0.537-1.027,0.83-1.485c0.286-0.455,0.548-0.762,0.783-0.913c0.343,0.812,0.829,1.658,1.456,2.52
		c0.341,0.587,0.838,1.164,1.497,1.708c0.627,0.521,1.329,0.984,2.097,1.376c-0.745,2.212-2.902,4.88-5.522,3.431
		C40.113,42.042,40.334,38.786,41.332,36.712z M95.688,20.484c0.487-2.112,1.122-4.192,1.921-6.244
		c2.229-5.728,5.688-5.854,5.606,0.33c-0.042,3.183-0.525,6.757-1.483,9.795c-0.576,1.828-1.201,3.568-1.877,5.218
		c-0.674,1.65-1.385,3.16-2.129,4.531c-0.748,1.371-1.482,2.59-2.205,3.656c-0.48-1.371-0.805-2.957-0.977-4.76
		c-0.167-1.804-0.127-3.821,0.109-6.057C94.859,24.765,95.199,22.609,95.688,20.484z M127.178,34.74
		c0.17,1.626,0.101,3.473-1.17,4.668c-0.537,0.504-1.845,1.721-2.45,1.155c-0.335-0.312-1.617-2.538-1.433-2.876
		c0.012-0.021,0.03-0.055,0.04-0.072c1.065-1.919,1.757-4.827,2.403-6.921c0.244-0.791,0.381-1.339,0.432-1.694
		c0.189,0.355,0.428,0.752,0.707,1.195c0.279,0.441,0.541,0.993,0.787,1.657C126.854,32.824,127.076,33.769,127.178,34.74z"/>
	<path fill="#010101" d="M111.814,28.627c0.42,0.099,0.914-0.024,1.496-0.373c0.58-0.348,0.891-0.768,0.944-1.267
		c0-0.496-0.079-1.056-0.236-1.678c-0.158-0.62-0.652-0.981-1.496-1.083l0.078-0.072c-0.842-0.05-1.444,0.235-1.812,0.857
		c-0.366,0.622-0.579,1.105-0.629,1.454c0,0.397,0.086,0.82,0.271,1.266C110.616,28.18,111.075,28.478,111.814,28.627z"/>
	<path fill="#010101" d="M185.327,3.474c-0.054-0.696-0.243-1.107-0.546-1.237c-0.359-0.089-0.799,0.061-1.325,0.446
		c-1.284,0.94-1.522,2.811-1.74,4.259c-0.226,1.509-0.803,2.905-1.161,4.402c-0.311,1.299-0.538,2.624-0.803,3.914
		c-0.426,2.081-1.004,4.018-1.318,6.139c-0.635,3.748-1.227,7.428-1.865,11.169c-0.209,1.208-0.451,2.605-0.723,4.202
		c-0.219,1.06,0.117,1.759,1,2.101c0.305,0.131,0.549,0.119,0.729-0.033c1.036-0.876,0.67-2.78,0.857-3.949
		c0.184-1.137,0.332-2.279,0.533-3.415c0.385-2.174,0.854-4.332,1.369-6.479c1.02-4.243,1.971-8.478,3.115-12.659
		c0.352-1.288,0.674-2.437,0.947-3.439C184.887,7.108,185.473,5.363,185.327,3.474z"/>
	<path fill="#010101" d="M180.264,58.867c-2.211-2.149-5.02-3.413-7.897-4.435c-1.995-0.709-4.051-1.229-6.102-1.749
		c-2.438-0.617-4.9-1.135-7.401-1.41c-3.179-0.35-6.429-0.559-9.557-0.603c-3.172-0.045-6.309-0.003-9.447,0.041
		c-3.777,0.053-7.275,0.291-11.032,0.658c-2.644,0.258-5.278,0.6-7.911,0.953c-3.116,0.417-6.215,0.906-9.305,1.381
		c-6.193,0.956-12.357,1.936-18.526,2.565c-3.06,0.312-6.175,0.564-9.249,0.646c-4.587,0.122-9.259-0.01-13.806-0.615
		c-1.526-0.203-3.064-0.34-4.585-0.58c-3.057-0.432-6.089-1.014-9.107-1.666c-3.02-0.648-6.01-1.437-8.985-2.262
		c-0.702-0.194-14.758-4.684-14.651-4.936c0.312-0.771,0.614-1.582,0.893-2.477c0.832-2.664,1.232-5.003,1.525-7.799
		c0.351-3.34-0.049-6.497-0.031-9.813c0.007-1.335,0.06-2.672,0.14-4.01c3.143-0.965,5.983-2.261,8.465-3.976
		c2.777-1.921,4.83-4.472,5.33-7.89c0.309-2.108,1.168-5.542-0.322-7.372c-1.908-2.343-4.283-0.99-6.547-0.164
		c-3.637,1.332-6.739,4.54-8.307,7.969c-0.936,2.047-1.399,4.443-1.403,7.182c-3.966,1.202-7.766,2.797-7.335,5.264
		c0.021-0.002,0.04-0.005,0.06-0.008c-0.09,0.308-0.119,0.628-0.06,0.968c2.566-0.275,5.003-0.679,7.31-1.222
		c-0.006,0.989-0.005,1.992-0.015,2.975c-0.057,4.714-0.285,9.359-1.236,13.983c-0.412,2.004-0.98,3.757-1.686,5.264
		c-2.639-0.873-5.262-1.615-7.873-2.231c-3.942-0.93-9.231-1.678-13.176-0.386c-2.209,0.724-4.574,2.094-5.56,4.31
		c-1.078,2.42-0.585,5.635,1.195,7.612c2.203,2.445,5.613,3.114,8.77,3.242c3.99,0.162,7.94-0.672,11.491-2.528
		c2.787-1.457,4.875-3.021,6.632-5.638l0.644-0.959c1.349,0.548,4.536,1.739,5.923,2.272c2.892,1.102,5.819,2.121,8.774,3.073
		c5.93,1.911,11.981,3.342,18.12,4.377c3.076,0.519,6.187,0.863,9.305,1.127c3.12,0.249,6.264,0.319,9.408,0.27
		c3.124-0.113,6.246-0.279,9.342-0.604c6.201-0.588,12.322-1.547,18.406-2.49c6.088-0.95,12.143-1.881,18.211-2.498
		c3.029-0.287,6.064-0.527,9.096-0.601c3.111-0.075,6.168-0.114,9.294-0.133c2.979-0.019,5.987,0.156,8.956,0.403
		c7.809,0.65,13.059,1.775,19.184,4.275c1.725,0.704,3.804,1.771,5.28,2.912c0.244,0.188,0.433,0.367,0.606,0.498
		c0.156,0.14,0.297,0.237,0.41,0.271c0.213,0.074,0.33-0.117,0.195-0.726C181.975,60.993,181.473,59.983,180.264,58.867z
		 M41.818,7.402c2.777-1.673,5.147-0.375,5.413,2.133c-0.025,0.255-0.062,0.515-0.127,0.785c-0.604,2.511-4.971,4.928-7.135,5.93
		c-0.883,0.41-2.401,0.827-4.136,1.3c0.14-0.718,0.295-1.426,0.482-2.119c0.496-1.815,1.209-3.417,2.143-4.795
		C39.39,9.257,40.494,8.201,41.818,7.402z M25.445,50.652c-0.988,0.837-2.113,1.594-3.379,2.271
		c-1.264,0.677-2.648,1.206-4.16,1.575c-1.512,0.365-3.172,0.527-4.98,0.484c-2.09-0.049-3.68-0.312-4.777-0.802
		c-1.1-0.487-1.896-1.048-2.387-1.667c-0.496-0.625-0.76-1.217-0.783-1.792c-0.031-0.567-0.047-0.985-0.047-1.246
		c0-0.208,0.094-0.585,0.293-1.128c0.191-0.546,0.588-1.068,1.193-1.565c0.605-0.493,1.492-0.927,2.678-1.29
		c1.18-0.369,2.758-0.529,4.734-0.486c1.812,0.047,3.361,0.157,4.652,0.336c1.293,0.179,2.457,0.406,3.504,0.688
		c1.041,0.281,2.449,0.705,3.426,0.959c1.092,0.281,1.633,0.584,2.68,0.941C27.429,48.813,26.431,49.822,25.445,50.652z"/>
</g>
</svg>
