<?xml version="1.0" encoding="utf-8"?>
<!-- Generator: Adobe Illustrator 16.0.0, SVG Export Plug-In . SVG Version: 6.00 Build 0)  -->
<!DOCTYPE svg PUBLIC "-//W3C//DTD SVG 1.1//EN" "http://www.w3.org/Graphics/SVG/1.1/DTD/svg11.dtd">
<svg version="1.1" id="Layer_1" xmlns="http://www.w3.org/2000/svg" xmlns:xlink="http://www.w3.org/1999/xlink" x="0px" y="0px"
	 width="199.834px" height="63px" viewBox="0 0 199.834 63" enable-background="new 0 0 199.834 63" xml:space="preserve">
<g>
	<path fill="#FFFFFF" d="M174.537,46.074c0.271,0.363,0.687,0.633,1.259,0.742c0.607,0.119,1.122-0.047,1.536-0.51
		c0.41-0.461,0.665-0.896,0.76-1.312c0.046-0.417-0.079-0.928-0.377-1.516c-0.291-0.595-0.771-0.948-1.428-1.069l0.08-0.071
		c-0.658-0.126-1.191,0.092-1.593,0.663C174.063,44.008,173.94,45.271,174.537,46.074z"/>
	<path fill="#FFFFFF" d="M48.107,27.184c-0.627-0.306-1.208-0.432-1.75-0.381c-1.139,0.1-1.995,0.418-2.564,0.953
		c-0.57,0.532-0.938,1.18-1.096,1.943c-0.331,0.101-0.6,0.201-0.819,0.303c-0.218,0.104-0.462,0.305-0.732,0.607
		c-0.486,0.561-1.031,1.424-1.623,2.592c-1.729,3.377-2.736,9.976,0.688,12.807c0.645,0.533,1.462,0.827,2.438,0.876
		c4.001,0.2,6.471-2.737,7.652-6.254h0.319c1.903,0.265,2.819,0.082,3.952-0.374c0.676-0.271,1.259-0.587,1.771-0.933
		c0.04,2.229,0.732,4.041,2.096,5.429c1.49,1.523,3.395,2.232,5.707,2.132c2.023-0.049,3.768-0.534,5.234-1.448
		c1.469-0.912,2.689-1.918,3.648-3.008c0.523-0.593,0.969-1.169,1.351-1.729c0.01,0.688,0.075,1.308,0.202,1.845
		c0.587,2.488,3.107,5.698,5.812,3.394c0.629-0.535,1.182-1.104,1.668-1.718c0.525-0.711,1.055-1.549,1.584-2.513
		c0.146,0.861,0.436,1.624,0.867,2.286c0.385,0.559,0.893,1.09,1.517,1.598c2.611,2.121,6.982-0.463,8.81-2.442
		c0.354,0.537,0.74,1.043,1.185,1.49c2.105,2.131,5.168,2.329,7.608,0.84c1.375-0.84,2.529-1.804,3.467-2.896
		c0.613-0.712,1.129-1.406,1.566-2.086c0.102,0.892,0.355,1.806,0.779,2.743c0.432,0.964,1.059,1.812,1.877,2.551
		c2.771,2.482,6.166-1.239,7.861-3.438c0.438-0.567,0.834-1.123,1.188-1.664c0.479,1.319,1.104,2.496,1.906,3.494
		c1.203,1.498,3.029,2.32,5.488,2.473c1.78,0.104,3.358-0.264,4.729-1.104c1.2-0.731,2.455-2.298,3.211-3.483
		c0.56-0.877,0.935-1.688,1.435-2.813c0.703-1.585,1.127-2.571,1.612-4.11c0.011-0.021,0.024-0.023,0.033-0.052
		c0.344-1.104,0.769-2.338,0.916-2.338c0.291,0,0.444,0.317,0.463,1.011c0.056,2.127-0.267,4.09-0.401,6.197
		c-0.072,1.112-0.082,2.157-0.035,3.124c0.045,0.972,0.207,1.797,0.476,2.479c0.271,0.687,0.739,1.06,1.428,1.11
		c0.586,0.06,1.134-0.227,1.644-0.854c0.513-0.634,0.996-1.412,1.463-2.354c0.462-0.938,0.896-1.979,1.312-3.121
		c0.74-2.058,1.324-4.133,2.15-6.162c0.274-0.686,0.479-0.992,0.631-0.992c0.291,0,0.471,0.307,0.534,0.969
		c0.273,2.826-0.325,5.576-0.104,8.369c0.069,0.883,0.254,1.623,0.549,2.227c0.295,0.598,0.752,0.896,1.389,0.896
		c0.582,0,1.142-0.342,1.677-1.024c0.535-0.687,1.035-1.542,1.496-2.567c0.467-1.026,0.881-2.151,1.243-3.379
		c0.365-1.229,0.742-3.244,1.093-5.076c0.354-1.833,0.642-3.361,0.854-4.506c0.129-0.686,0.229-1.14,0.312-1.396
		c0.023-0.053,0.051-0.087,0.07-0.09c0.412-0.054-0.217,4.243-0.234,4.494c-0.189,2.427-0.312,4.861-0.271,7.298
		c0.021,1.438,0.207,2.104,0.549,3.216c0.34,1.111,0.861,2.04,1.572,2.779c0.703,0.74,1.713,1.145,3.027,1.199
		c1.408,0.056,2.711-0.401,3.904-1.371c1.191-0.972,2.229-2.056,3.104-3.25c0.879-1.198,1.579-2.369,2.115-3.511
		c0.535-1.14,0.88-1.853,1.021-2.142c0.646-1.614,1.246-2.995,0.883-4.766c-0.076-0.371-0.209-0.586-0.404-0.641
		c-0.191-0.057-0.361,0.084-0.512,0.428c-0.439,0.912-0.975,2.023-1.605,3.336c-0.633,1.312-1.363,2.563-2.188,3.767
		c-0.826,1.196-1.717,2.224-2.664,3.077c-0.951,0.854-1.965,1.229-3.031,1.111c-0.975-0.056-1.688-0.429-2.15-1.111
		c-0.469-0.685-0.779-1.51-0.947-2.479c-0.17-0.967-0.221-1.979-0.148-3.503c0.092-1.917,0.325-3.822,0.447-5.737
		c0.062-0.99,0.511-3.15-0.043-4.073c-0.639-1.063-1.35-1.654-2.158-1.769c-0.803-0.112-1.377,0.477-1.715,1.769
		c-0.145,0.611-0.438,1.846-0.875,3.707c-0.785,3.342-1.544,6.824-2.775,10.035c-0.438,1.143-0.729,1.688-0.877,1.627
		c-0.195-0.059-0.305-0.527-0.326-1.412c-0.063-2.771,0.326-5.498,0.326-8.257c0-0.968-0.186-1.726-0.549-2.268
		c-0.365-0.541-0.777-0.885-1.242-1.027c-0.463-0.141-0.924-0.098-1.385,0.129c-0.465,0.229-0.838,0.629-1.133,1.199
		c-0.146,0.285-0.449,1.099-0.912,2.438c-0.951,2.741-1.934,5.454-3.174,8.086c-0.539,1.143-0.951,1.625-1.246,1.452
		c-0.193-0.057-0.266-0.512-0.215-1.368c0.158-2.697,1.039-6.104,0.307-8.733c-0.246-0.74-0.627-1.405-0.998-1.833
		c-0.369-0.429-0.711-0.668-1.029-0.727c-0.312-0.056-0.615,0-0.912,0.171c-0.959,0.554-1.306,2.229-1.566,3.208
		c-0.473,1.733-1.061,3.455-1.775,5.104c-0.732,1.68-1.396,3.041-2.404,4.381c-1.207,1.604-3.354,2.65-5.414,2.422
		c-1.135-0.127-2.062-0.312-2.994-1.079c0.453,0.375,2.097-0.478,2.521-0.692c0.799-0.406,1.463-0.982,1.926-1.756
		c0.914-1.52,0.918-3.443,0.463-5.107c-0.32-1.174-0.778-2.293-1.188-3.436c-0.622-1.732-1.284-3.557-1.317-5.371
		c-0.023-1.437-0.054-3.089-1.933-3.089c-0.674,0-1.104,0.303-1.301,0.914c-0.19,0.608-0.406,1.318-0.649,2.131
		c-0.941,2.667-1.687,5.33-2.675,8c-0.328,0.888-0.412,1.095-0.744,1.845c-0.627,1.375-1.295,2.639-2.081,3.608
		c-0.972,1.213-3.647,4.437-5.414,2.562c-0.522-0.554-0.88-1.229-1.062-2.021c-0.188-0.793-0.281-1.664-0.281-2.604
		c0-0.938,0.047-1.813,0.146-2.629c0.326-2.697,1.313-4.094-0.687-4.152c-2.312-0.068-1.799,2.39-2.026,3.971
		c-0.312,2.178-1.401,3.532-2.742,5.217c-0.084,0.104-0.174,0.204-0.262,0.31c-1.942,2.113-3.996,3.938-6.976,2.106
		c-0.325-0.2-2.346-1.909-2.055-2.317c0.517-0.727,1.146-1.739,1.898-3.066c2.27-3.995,4.164-8.252,5.562-12.646
		c0.764-2.393,1.41-5.288,1.629-7.779c0.289-3.312,0.75-6.159-0.215-9.372c-1.678-5.583-6.564-2.364-8.527,1.03
		c-3.268,5.65-5.02,12.598-5.02,19.131c0,4.333-0.177,8.152,1.117,12.377c0.063,0.204,0.146,0.395,0.217,0.591
		c0.332,0.92-5.853,3.354-7.064,0.732c-0.389-0.84-0.566-1.777-0.539-2.816c0.023-1.041,0.277-2.072,0.756-3.477
		c0.049-0.254-0.064-0.477-0.326-0.668c-0.264-0.188-0.566-0.326-0.902-0.41c-2.242-0.58-1.683,1.162-2.17,2.523
		c-0.265,0.739-0.587,1.475-0.972,2.369c-0.459,1.066-0.986,2.009-1.592,2.818c-1.51,2.041-3.217,1.209-3.607-0.992
		c-0.389-2.195,0.021-4.402,0.861-6.428c0.336-0.812,0.725-1.535,1.154-2.17c0.439-0.638,0.906-1.131,1.408-1.486
		c0.51-0.355,1.025-0.535,1.56-0.535c1.465,0,2.253,1.017,2.268,2.354c0.996,0.174,1.854-1.122,1.959-1.98
		c0.136-1.116-0.721-2.263-1.594-2.931c-0.527-0.406-1.32-0.633-2.383-0.686c-3.161-0.157-5.346,3.199-6.5,5.639
		c-0.454,0.957-0.792,2.041-1.017,3.237c-0.183,0.362-0.371,0.739-0.571,1.147c-1.256,2.564-2.806,4.479-5.337,5.883
		c-1.253,0.691-2.7,0.99-4.339,0.91c-2.122-0.15-3.557-0.742-4.303-1.812c-1.852-2.646-1.027-7.588,0.719-10.088
		c0.949-1.36,1.959-2.641,3.833-2.437c0.482,0.053,0.815,0.23,1.009,0.535c0.684,1.078-0.021,2.844-0.723,3.732
		c-0.242,0.306-0.398,0.688-0.47,1.146c-0.068,0.455-0.01,0.763,0.184,0.91c0.387,0.258,0.758,0.308,1.117,0.154
		c0.361-0.154,0.636-0.354,0.83-0.607c1.206-1.59,2.133-3.28,2.133-5.306c0-1.117-0.324-2.031-0.971-2.743
		c-0.65-0.711-1.607-1.091-2.854-1.142c-1.352-0.051-2.555,0.292-3.613,1.027c-2.202,1.53-3.625,4.082-4.371,6.625
		c-0.229,0.781-0.395,1.529-0.511,2.254c-0.045,0.207-0.09,0.414-0.127,0.617c-0.054,0.067-0.108,0.135-0.161,0.188
		c-1.338,1.289-2.761,1.808-4.539,1.444c-0.299-0.062-0.601-0.127-0.928-0.229c0.491-2.251,0.768-4.262,0.17-6.557
		c-0.299-1.144-0.719-2.068-1.263-2.778C49.31,27.996,48.727,27.487,48.107,27.184z M47.73,30.925
		c1.23,1.823,1.314,4.234,0.907,6.323c-1.415-0.908-2.408-1.948-3.047-3.508c-0.29-0.708-0.356-1.44-0.212-2.189
		c0.147-0.739,0.595-1.137,1.334-1.194C47.135,30.371,47.479,30.553,47.73,30.925z M41.332,36.712
		c0.262-0.53,0.537-1.026,0.83-1.485c0.286-0.455,0.548-0.762,0.783-0.912c0.343,0.812,0.829,1.658,1.456,2.521
		c0.341,0.587,0.838,1.164,1.497,1.708c0.627,0.521,1.329,0.981,2.097,1.376c-0.745,2.212-2.902,4.88-5.522,3.434
		C40.113,42.042,40.334,38.786,41.332,36.712z M95.688,20.484c0.487-2.112,1.123-4.192,1.922-6.244
		c2.229-5.728,5.688-5.854,5.605,0.33c-0.042,3.183-0.524,6.757-1.481,9.795c-0.574,1.828-1.199,3.568-1.876,5.218
		c-0.674,1.65-1.385,3.16-2.129,4.531c-0.748,1.37-1.481,2.59-2.205,3.655c-0.479-1.371-0.806-2.957-0.978-4.763
		c-0.167-1.804-0.127-3.821,0.108-6.057C94.859,24.765,95.199,22.609,95.688,20.484z M127.179,34.74
		c0.17,1.626,0.103,3.473-1.171,4.668c-0.536,0.504-1.845,1.721-2.448,1.154c-0.336-0.312-1.617-2.537-1.435-2.875
		c0.013-0.021,0.028-0.059,0.04-0.072c1.064-1.92,1.757-4.827,2.402-6.921c0.244-0.791,0.382-1.339,0.433-1.694
		c0.188,0.355,0.429,0.752,0.707,1.195c0.278,0.441,0.541,0.993,0.787,1.657C126.854,32.824,127.076,33.77,127.179,34.74z"/>
	<path fill="#FFFFFF" d="M111.813,28.627c0.42,0.099,0.914-0.024,1.496-0.373c0.58-0.348,0.892-0.768,0.941-1.267
		c0-0.496-0.079-1.056-0.234-1.678c-0.158-0.62-0.65-0.981-1.496-1.083l0.078-0.072c-0.844-0.05-1.442,0.235-1.812,0.857
		c-0.366,0.622-0.579,1.105-0.629,1.454c0,0.397,0.086,0.82,0.271,1.266C110.616,28.18,111.075,28.478,111.813,28.627z"/>
	<path fill="#FFFFFF" d="M185.327,3.474c-0.055-0.696-0.243-1.107-0.547-1.237c-0.358-0.089-0.799,0.061-1.324,0.446
		c-1.284,0.94-1.521,2.811-1.74,4.259c-0.226,1.509-0.803,2.905-1.16,4.402c-0.312,1.299-0.537,2.624-0.804,3.914
		c-0.426,2.081-1.004,4.018-1.317,6.139c-0.636,3.748-1.228,7.428-1.865,11.169c-0.209,1.207-0.448,2.604-0.723,4.201
		c-0.22,1.061,0.116,1.76,1,2.102c0.305,0.131,0.549,0.119,0.729-0.033c1.034-0.876,0.67-2.779,0.854-3.949
		c0.187-1.137,0.332-2.279,0.532-3.415c0.386-2.174,0.854-4.332,1.369-6.479c1.021-4.243,1.972-8.478,3.114-12.659
		c0.353-1.288,0.675-2.437,0.947-3.439C184.888,7.108,185.474,5.363,185.327,3.474z"/>
	<path fill="#FFFFFF" d="M180.265,58.867c-2.211-2.149-5.021-3.413-7.896-4.436c-1.995-0.709-4.054-1.229-6.104-1.748
		c-2.438-0.617-4.897-1.139-7.399-1.41c-3.181-0.354-6.431-0.562-9.56-0.604c-3.172-0.045-6.309-0.003-9.447,0.041
		c-3.773,0.054-7.271,0.291-11.028,0.658c-2.646,0.258-5.278,0.6-7.911,0.952c-3.116,0.418-6.215,0.906-9.309,1.382
		c-6.189,0.956-12.354,1.937-18.522,2.563c-3.06,0.312-6.175,0.562-9.249,0.646c-4.587,0.122-9.259-0.011-13.806-0.615
		c-1.526-0.203-3.064-0.34-4.585-0.58c-3.057-0.432-6.089-1.014-9.107-1.666c-3.02-0.647-6.01-1.437-8.985-2.262
		c-0.702-0.193-14.758-4.685-14.651-4.937c0.312-0.771,0.614-1.582,0.893-2.479c0.832-2.664,1.232-5.003,1.525-7.799
		c0.351-3.341-0.049-6.497-0.031-9.813c0.007-1.335,0.06-2.672,0.14-4.01c3.143-0.965,5.983-2.261,8.465-3.976
		c2.777-1.921,4.83-4.472,5.33-7.89c0.309-2.108,1.168-5.542-0.322-7.372c-1.908-2.343-4.283-0.99-6.547-0.164
		c-3.637,1.332-6.739,4.54-8.307,7.969c-0.936,2.047-1.399,4.443-1.403,7.182c-3.966,1.202-7.766,2.797-7.335,5.264
		c0.021-0.002,0.04-0.005,0.06-0.008c-0.09,0.308-0.119,0.628-0.06,0.968c2.566-0.275,5.003-0.679,7.31-1.222
		c-0.006,0.989-0.005,1.992-0.015,2.975c-0.057,4.714-0.285,9.359-1.236,13.983c-0.412,2.004-0.98,3.758-1.686,5.266
		c-2.639-0.873-5.262-1.615-7.873-2.229c-3.942-0.931-9.231-1.679-13.176-0.388c-2.209,0.726-4.574,2.096-5.56,4.312
		c-1.078,2.42-0.585,5.636,1.195,7.612c2.203,2.443,5.613,3.113,8.77,3.24c3.99,0.162,7.94-0.672,11.491-2.526
		c2.787-1.457,4.875-3.021,6.632-5.64l0.644-0.959c1.349,0.549,4.536,1.739,5.923,2.271c2.892,1.104,5.819,2.121,8.774,3.073
		c5.93,1.91,11.981,3.342,18.12,4.377c3.076,0.521,6.187,0.861,9.305,1.127c3.12,0.249,6.264,0.316,9.408,0.271
		c3.124-0.113,6.246-0.277,9.342-0.604c6.202-0.588,12.322-1.547,18.407-2.49c6.09-0.946,12.145-1.881,18.213-2.498
		c3.026-0.284,6.062-0.524,9.096-0.601c3.111-0.075,6.168-0.114,9.295-0.137c2.979-0.019,5.986,0.156,8.955,0.404
		c7.81,0.649,13.06,1.774,19.185,4.274c1.726,0.704,3.804,1.771,5.28,2.911c0.244,0.188,0.433,0.367,0.605,0.498
		c0.153,0.141,0.297,0.237,0.407,0.271c0.214,0.074,0.33-0.116,0.195-0.726C181.976,60.993,181.474,59.982,180.265,58.867z
		 M41.818,7.402c2.777-1.673,5.147-0.375,5.413,2.133c-0.025,0.255-0.062,0.515-0.127,0.785c-0.604,2.511-4.971,4.928-7.135,5.93
		c-0.883,0.41-2.401,0.827-4.136,1.3c0.14-0.718,0.295-1.426,0.482-2.119c0.496-1.815,1.209-3.417,2.143-4.795
		C39.39,9.257,40.494,8.201,41.818,7.402z M25.445,50.652c-0.988,0.837-2.113,1.594-3.379,2.271
		c-1.264,0.677-2.648,1.206-4.16,1.575c-1.512,0.365-3.172,0.527-4.98,0.484c-2.09-0.049-3.68-0.312-4.777-0.803
		c-1.1-0.486-1.896-1.051-2.387-1.666c-0.496-0.625-0.76-1.221-0.783-1.796c-0.031-0.563-0.047-0.981-0.047-1.243
		c0-0.207,0.094-0.584,0.293-1.127c0.191-0.55,0.588-1.068,1.193-1.565c0.605-0.493,1.492-0.927,2.678-1.29
		c1.18-0.369,2.758-0.529,4.734-0.486c1.812,0.047,3.361,0.157,4.652,0.336c1.293,0.18,2.457,0.406,3.504,0.688
		c1.041,0.28,2.449,0.704,3.426,0.959c1.092,0.28,1.633,0.584,2.68,0.94C27.429,48.812,26.431,49.822,25.445,50.652z"/>
</g>
<circle fill="none" cx="199.276" cy="39.25" r="0.558"/>
</svg>
