<?xml version="1.0" encoding="utf-8"?>
<!-- Generator: Adobe Illustrator 15.0.0, SVG Export Plug-In . SVG Version: 6.00 Build 0)  -->
<!DOCTYPE svg PUBLIC "-//W3C//DTD SVG 1.1 Basic//EN" "http://www.w3.org/Graphics/SVG/1.1/DTD/svg11-basic.dtd">
<svg version="1.1" baseProfile="basic" id="Layer_1"
	 xmlns="http://www.w3.org/2000/svg" xmlns:xlink="http://www.w3.org/1999/xlink" x="0px" y="0px" width="120.45px"
	 height="132.67px" viewBox="0 0 120.45 132.67" xml:space="preserve">
<path fill="#FFFFFF" d="M92.614,77c-15.375,0-27.836,12.465-27.836,27.836c0,15.372,12.461,27.834,27.836,27.834
	c15.373,0,27.836-12.462,27.836-27.834C120.45,89.465,107.986,77,92.614,77z M92.614,128.088c-12.843,0-23.254-10.409-23.254-23.252
	c0-12.84,10.411-23.254,23.254-23.254c12.842,0,23.254,10.414,23.254,23.254C115.868,117.679,105.456,128.088,92.614,128.088z"/>
<path fill="#FFFFFF" d="M83.17,112.465c-4.281,0-7.752-3.467-7.752-7.748c0-4.282,3.471-7.75,7.752-7.75s7.75,3.468,7.75,7.75
	C90.918,108.998,87.452,112.465,83.17,112.465z M102.618,112.465c-4.281,0-7.75-3.467-7.75-7.748c0-4.282,3.469-7.75,7.75-7.75
	c4.278,0,7.75,3.468,7.75,7.75C110.368,108.998,106.896,112.465,102.618,112.465z"/>
<g>
	<path fill="#FFFFFF" d="M92.614,77c-8.754,0-16.559,4.044-21.66,10.36L53.797,76.767c1.206-3.117,1.875-6.5,1.875-10.042
		c0-2.999-0.48-5.884-1.358-8.591l18.088-11.171c5.073,5.359,12.249,8.707,20.212,8.707c15.373,0,27.836-12.462,27.836-27.834
		C120.45,12.465,107.986,0,92.614,0C77.239,0,64.778,12.465,64.778,27.836c0,3.453,0.633,6.756,1.782,9.807L48.905,48.546
		c-5.104-5.911-12.647-9.657-21.069-9.657C12.461,38.889,0,51.354,0,66.725C0,82.097,12.461,94.56,27.836,94.56
		c7.871,0,14.973-3.272,20.036-8.523l17.991,11.109c-0.7,2.443-1.085,5.021-1.085,7.69c0,15.372,12.461,27.834,27.836,27.834
		c15.373,0,27.836-12.462,27.836-27.834C120.45,89.465,107.986,77,92.614,77z M71.267,17.513c0.996-2.724,3.114-5.459,6.159-5.459
		h30.466c3.044,0,5.411,3.259,6.159,5.43c0,0,1.195,3.99,1.195,10.707c0,6.717-1.195,10.343-1.195,10.343
		c-0.748,2.44-3.115,5.521-6.159,5.521H77.426c-3.045,0-5.66-3.386-6.159-5.577c0,0-1.194-2.751-1.194-10.461
		C70.073,20.304,71.267,17.513,71.267,17.513z M21.35,86.549c-4.934,0-9.527-1.444-13.396-3.927c0.685,0.081,1.38,0.123,2.085,0.123
		c4.095,0,7.861-1.396,10.853-3.741c-3.823-0.069-7.05-2.597-8.162-6.067c0.532,0.104,1.08,0.156,1.644,0.156
		c0.798,0,1.369-0.105,2.102-0.306c-3.998-0.804-7.209-4.335-7.209-8.567c0-0.038,0-0.075,0-0.11c1,0.653,2.726,1.047,4.158,1.093
		c-2.345-1.566-3.786-4.241-3.786-7.273c0-1.603,0.479-3.104,1.232-4.393c4.31,5.286,10.774,8.766,18.036,9.129
		c-0.148-0.641-0.212-1.307-0.212-1.989c0-4.827,3.918-8.74,8.743-8.74c2.514,0,4.788,1.062,6.381,2.761
		c1.752-0.346,3.404-0.963,4.927-1.787l0.306,0.495c-0.731,1.674-1.97,3.074-3.524,4.004c1.768-0.211,3.453-0.68,5.019-1.376
		c-1.17,1.753-2.652,3.293-4.359,4.521c0.018,0.376,0.024,0.753,0.024,1.133C46.211,73.233,37.423,86.549,21.35,86.549z
		 M92.614,127.21c-12.357,0-22.377-10.016-22.377-22.374c0-12.356,10.02-22.376,22.377-22.376s22.377,10.02,22.377,22.376
		C114.991,117.194,104.971,127.21,92.614,127.21z"/>
	<polygon fill="#FFFFFF" points="88.266,36.326 100.312,28.199 88.266,20.072 	"/>
</g>
</svg>
