<?xml version="1.0" encoding="utf-8"?>
<!-- Generator: Adobe Illustrator 16.0.0, SVG Export Plug-In . SVG Version: 6.00 Build 0)  -->
<!DOCTYPE svg PUBLIC "-//W3C//DTD SVG 1.1//EN" "http://www.w3.org/Graphics/SVG/1.1/DTD/svg11.dtd">
<svg version="1.1" xmlns="http://www.w3.org/2000/svg" xmlns:xlink="http://www.w3.org/1999/xlink" x="0px" y="0px"
	 width="90.796px" height="90.794px" viewBox="0 0 90.796 90.794" enable-background="new 0 0 90.796 90.794" xml:space="preserve">
<g id="Layer_9" display="none">
	<rect x="-40.54" y="-715.178" display="inline" fill="#333132" width="638" height="1134"/>
</g>
<g id="Layer_10">
	<g>
		<path fill="#FFFFFF" d="M45.397,0C20.321,0,0,20.329,0,45.398c0,25.07,20.321,45.396,45.397,45.396
			c25.073,0,45.398-20.325,45.398-45.396C90.796,20.329,70.468,0,45.397,0z M70.315,71.822H20.629
			c-4.968,0-9.232-5.508-10.046-9.082c0,0-1.947-4.481-1.947-17.055c0-12.576,1.947-17.044,1.947-17.044
			c1.623-4.442,5.078-8.819,10.046-8.819h49.687c4.965,0,8.826,5.232,10.045,8.773c0,0,1.951,6.467,1.951,17.422
			S80.36,62.851,80.36,62.851C79.142,66.83,75.28,71.822,70.315,71.822z"/>
		<polygon fill="#FFFFFF" points="37.46,59.245 57.106,45.99 37.46,32.735 		"/>
	</g>
</g>
</svg>
