<?xml version="1.0" encoding="utf-8"?>
<!-- Generator: Adobe Illustrator 16.0.0, SVG Export Plug-In . SVG Version: 6.00 Build 0)  -->
<!DOCTYPE svg PUBLIC "-//W3C//DTD SVG 1.1//EN" "http://www.w3.org/Graphics/SVG/1.1/DTD/svg11.dtd">
<svg version="1.1" xmlns="http://www.w3.org/2000/svg" xmlns:xlink="http://www.w3.org/1999/xlink" x="0px" y="0px"
	 width="90.797px" height="90.802px" viewBox="0 0 90.797 90.802" enable-background="new 0 0 90.797 90.802" xml:space="preserve">
<g id="Layer_9" display="none">
	<rect x="-40.54" y="-129.479" display="inline" fill="#333132" width="638" height="1134"/>
</g>
<g id="Layer_10">
	<g>
		<polygon fill="#FFFFFF" points="68.216,32.615 68.216,23.855 68.216,22.549 66.903,22.553 58.15,22.583 58.186,32.646 		"/>
		<path fill="#FFFFFF" d="M45.398,54.562c5.048,0,9.163-4.109,9.163-9.162c0-1.996-0.649-3.84-1.735-5.341
			c-1.665-2.311-4.371-3.822-7.428-3.822c-3.058,0-5.763,1.512-7.432,3.822c-1.084,1.501-1.731,3.345-1.732,5.341
			C36.234,50.453,40.345,54.562,45.398,54.562z"/>
		<path fill="#FFFFFF" d="M45.399,0C20.325,0,0,20.327,0,45.4c0,25.075,20.325,45.401,45.399,45.401
			c25.072,0,45.397-20.326,45.397-45.401C90.797,20.327,70.472,0,45.399,0z M76.534,39.01v25.491
			c0,6.639-5.399,12.036-12.034,12.036H26.296c-6.636,0-12.035-5.397-12.035-12.036V39.01V26.295
			c0-6.634,5.399-12.034,12.035-12.034h38.203c6.636,0,12.034,5.398,12.035,12.034V39.01z"/>
		<path fill="#FFFFFF" d="M61.634,45.4c0,8.948-7.283,16.237-16.234,16.237c-8.954,0-16.237-7.289-16.237-16.237
			c0-2.156,0.43-4.211,1.197-6.093h-8.865v24.307c0,3.139,2.553,5.689,5.691,5.689h36.427c3.137,0,5.689-2.551,5.689-5.689V39.308
			h-8.865C61.202,41.189,61.634,43.244,61.634,45.4z"/>
	</g>
</g>
</svg>
