<?xml version="1.0" encoding="utf-8"?>
<!-- Generator: Adobe Illustrator 16.0.0, SVG Export Plug-In . SVG Version: 6.00 Build 0)  -->
<!DOCTYPE svg PUBLIC "-//W3C//DTD SVG 1.1//EN" "http://www.w3.org/Graphics/SVG/1.1/DTD/svg11.dtd">
<svg version="1.1" xmlns="http://www.w3.org/2000/svg" xmlns:xlink="http://www.w3.org/1999/xlink" x="0px" y="0px"
	 width="90.795px" height="90.793px" viewBox="0 0 90.795 90.793" enable-background="new 0 0 90.795 90.793" xml:space="preserve">
<g id="Layer_9" display="none">
	<rect x="-40.597" y="-568.754" display="inline" fill="#333132" width="638" height="1134"/>
</g>
<g id="Layer_10">
	<path fill="#FFFFFF" d="M45.397,0C20.322,0,0,20.33,0,45.398c0,25.07,20.322,45.395,45.397,45.395
		c25.072,0,45.397-20.324,45.397-45.395C90.795,20.33,70.47,0,45.397,0z M75.326,35.336c0.029,0.613,0.041,1.229,0.041,1.848
		c0,18.83-14.334,40.549-40.547,40.549c-8.046,0-15.537-2.359-21.848-6.406c1.118,0.133,2.251,0.201,3.4,0.201
		c6.68,0,12.82-2.279,17.7-6.102c-6.236-0.113-11.498-4.236-13.312-9.898c0.869,0.172,1.763,0.258,2.682,0.258
		c1.302,0,2.378-0.172,3.574-0.5c-6.521-1.311-11.613-7.066-11.613-13.971c0-0.062,0-0.123,0-0.18c1,1.064,4.301,1.707,6.636,1.783
		c-3.823-2.557-6.248-6.92-6.248-11.863c0-2.615,0.746-5.062,1.974-7.166c7.028,8.623,17.554,14.297,29.396,14.889
		c-0.243-1.045-0.356-2.131-0.356-3.242c0-7.875,6.387-14.258,14.255-14.258c4.099,0,7.806,1.736,10.404,4.506
		c3.248-0.643,6.297-1.826,9.052-3.461c-1.062,3.33-3.32,6.121-6.265,7.885c2.883-0.344,5.631-1.109,8.186-2.244
		C80.529,30.82,78.111,33.334,75.326,35.336z"/>
</g>
</svg>
