<?xml version="1.0" encoding="utf-8"?>
<!-- Generator: Adobe Illustrator 16.0.0, SVG Export Plug-In . SVG Version: 6.00 Build 0)  -->
<!DOCTYPE svg PUBLIC "-//W3C//DTD SVG 1.1//EN" "http://www.w3.org/Graphics/SVG/1.1/DTD/svg11.dtd">
<svg version="1.1" xmlns="http://www.w3.org/2000/svg" xmlns:xlink="http://www.w3.org/1999/xlink" x="0px" y="0px"
	 width="90.796px" height="90.797px" viewBox="0 0 90.796 90.797" enable-background="new 0 0 90.796 90.797" xml:space="preserve">
<g id="Layer_9" display="none">
	<rect x="-40.54" y="-275.905" display="inline" fill="#333132" width="638" height="1134"/>
</g>
<g id="Layer_10">
	<g>
		<path fill="#FFFFFF" d="M62.927,32.395c-7.083,0-12.823,5.736-12.823,12.822c0,7.083,5.74,12.818,12.823,12.818
			c7.077,0,12.822-5.736,12.822-12.818C75.75,38.131,70.004,32.395,62.927,32.395z"/>
		<path fill="#FFFFFF" d="M28.724,32.395c-7.083,0-12.825,5.736-12.825,12.822c0,7.083,5.741,12.818,12.825,12.818
			c7.084,0,12.819-5.736,12.82-12.818C41.544,38.131,35.808,32.395,28.724,32.395z"/>
		<path fill="#FFFFFF" d="M45.398,0C20.324,0,0,20.33,0,45.398c0,25.075,20.324,45.398,45.398,45.398
			c25.069,0,45.397-20.323,45.397-45.398C90.796,20.33,70.467,0,45.398,0z M45.398,83.575c-21.086,0-38.177-17.09-38.177-38.177
			c0-21.081,17.091-38.177,38.177-38.177c21.08,0,38.176,17.096,38.176,38.177C83.574,66.485,66.479,83.575,45.398,83.575z"/>
	</g>
</g>
</svg>
