<?xml version="1.0" encoding="utf-8"?>
<!-- Generator: Adobe Illustrator 16.0.0, SVG Export Plug-In . SVG Version: 6.00 Build 0)  -->
<!DOCTYPE svg PUBLIC "-//W3C//DTD SVG 1.1//EN" "http://www.w3.org/Graphics/SVG/1.1/DTD/svg11.dtd">
<svg version="1.1" xmlns="http://www.w3.org/2000/svg" xmlns:xlink="http://www.w3.org/1999/xlink" x="0px" y="0px"
	 width="90.796px" height="90.796px" viewBox="0 0 90.796 90.796" enable-background="new 0 0 90.796 90.796" xml:space="preserve">
<g id="Layer_9" display="none">
	<rect x="-40.54" y="-422.329" display="inline" fill="#333132" width="638" height="1134"/>
</g>
<g id="Layer_10">
	<path fill="#FFFFFF" d="M45.398,0C20.324,0,0,20.33,0,45.398c0,25.076,20.324,45.398,45.398,45.398
		c25.069,0,45.397-20.322,45.397-45.398C90.796,20.33,70.467,0,45.398,0z M61.349,48.875H50.713c0,16.998,0,32.41,0,32.41H34.945
		c0,0,0-15.193,0-32.41h-7.504V35.477h7.504v-8.682c0-6.212,2.944-15.914,15.914-15.914l11.673,0.05v13.012c0,0-7.098,0-8.474,0
		c-1.385,0-3.344,0.689-3.344,3.646v7.892h12.017L61.349,48.875z"/>
</g>
</svg>
