<?xml version="1.0" encoding="utf-8"?>
<!-- Generator: Adobe Illustrator 16.0.0, SVG Export Plug-In . SVG Version: 6.00 Build 0)  -->
<!DOCTYPE svg PUBLIC "-//W3C//DTD SVG 1.1//EN" "http://www.w3.org/Graphics/SVG/1.1/DTD/svg11.dtd">
<svg version="1.1" id="Layer_1" xmlns="http://www.w3.org/2000/svg" xmlns:xlink="http://www.w3.org/1999/xlink" x="0px" y="0px"
	 width="156.098px" height="114.633px" viewBox="0 0 156.098 114.633" enable-background="new 0 0 156.098 114.633"
	 xml:space="preserve">
<path fill="#FFFFFF" d="M84.561,16.291c-2.233,0.963-2.971,4.102-1.996,7.325c0.729,2.436,0.729,5.187-0.373,7.698
	c-1.734,4.001-3.546,4.363-7.506,4.363c-3.93,0-4.597-2.756-4.916-7.952c-0.262-4.288,2.76-6.063,0.825-9.365
	c-0.243-0.425-0.722-1.907-2.014-2.069H51.605v-3.972c0-5.45,4.427-9.862,9.864-9.862h83.073c5.453,0,9.882,4.412,9.882,9.862
	v46.172c0,5.444-4.429,9.869-9.882,9.869h-2.717l4.347,27.112L123.58,68.36h-14.285v-4.285c0-1.408-0.038-4.471-0.038-4.471
	c-0.188-4.359-1.202-5.615-3.495-5.615c-4.124,0-6.318,2.206-12.93,0.536c-3.361-0.853-4.532-3.036-4.88-4.919
	c-0.093-0.564-0.077-1.213-0.077-1.969c0-5.188,4.957-8.017,11.567-6.365c5.408,1.354,6.584,0.226,6.584,0.226
	c1.542-0.404,3.269-2.19,3.269-5.218c0-3.013,0.112-6.742,0.042-7.598c0-5.445-2.769-12.392-8.22-12.392L84.561,16.291
	L84.561,16.291z"/>
<path fill="#FFFFFF" d="M3.524,29.683v32.079v14.1c0,5.448,4.406,9.864,9.854,9.864h2.754l-2.315,27.124l18.225-27.124h27.73h3.688
	h14.614h18.393c5.445,0,8.203-4.416,8.203-9.864V66.86c0-1.41-0.038-3.678-0.038-3.678c-0.178-4.734-1.205-5.643-3.488-5.643
	c-4.142,0-5.885,1.454-11.999,0.255c-3.093-0.601-4.188-3.322-4.479-5.496c-0.104-0.653-0.085-4.051-0.085-4.927
	c0-6.001,3.635-10.242,10.229-9.369c5.435,0.711,6.604,0.562,6.604,0.562c1.54-0.189,3.259-0.624,3.259-1.894
	c0-1.264,0.076-5.633,0-6.492v-1.497c0-5.445-2.758-8.866-8.203-8.866h-7.754c-2.675,1.162-3.562,2.282-2.401,5.506
	c0.863,2.436,0.863,5.188-0.442,7.703c-2.069,3.991-7.117,5.359-11.47,5.359c-4.358,0-7.761-2.758-8.114-7.951
	c-0.273-4.285,2.053-6.068-0.082-9.368c-0.278-0.414-0.811-1.053-2.216-1.249H46.963H13.379C7.931,19.816,3.524,24.237,3.524,29.683
	z"/>
</svg>
