<?xml version="1.0" encoding="utf-8"?>
<!-- Generator: Adobe Illustrator 16.0.0, SVG Export Plug-In . SVG Version: 6.00 Build 0)  -->
<!DOCTYPE svg PUBLIC "-//W3C//DTD SVG 1.1//EN" "http://www.w3.org/Graphics/SVG/1.1/DTD/svg11.dtd">
<svg version="1.1" id="Layer_1" xmlns="http://www.w3.org/2000/svg" xmlns:xlink="http://www.w3.org/1999/xlink" x="0px" y="0px"
	 width="293.946px" height="313.747px" viewBox="0 0 293.946 313.747" enable-background="new 0 0 293.946 313.747"
	 xml:space="preserve">
<path fill-rule="evenodd" clip-rule="evenodd" fill="#FFFFFF" d="M262.776,10.412c10.486,13.925,16.533,28.845,18.053,45.324
	c3.67,39.785-12.21,70.022-45.013,92.398c-23.466,16.006-46.213,33.059-69.285,49.641c-2.573,1.85-5.165,3.672-8.37,5.945
	c-9.911-12.525-15.551-26.295-17.93-41.39c-6.209-39.403,8.853-69.814,40.255-92.868c24.564-18.033,49.431-35.66,74.173-53.454
	C257.065,14.278,259.538,12.64,262.776,10.412z"/>
<path fill-rule="evenodd" clip-rule="evenodd" fill="#FFFFFF" d="M119.743,264.252c-15.728-11.342-30.595-22.033-45.434-32.77
	c-9.658-6.986-19.493-13.754-28.864-21.107c-19.402-15.227-29.866-35.062-31.956-59.943c-1.471-17.498,2.698-33.003,11.068-47.949
	c2.736-4.885,5.097-5.801,9.984-2.204c22.156,16.301,45.284,31.354,66.753,48.497c34.688,27.697,44.683,69.558,23.943,107.427
	C123.838,258.76,121.947,261.047,119.743,264.252z"/>
<path fill-rule="evenodd" clip-rule="evenodd" fill="#FFFFFF" d="M56.229,16.884c20.719,15.206,41.495,28.811,60.332,44.715
	c21.505,18.157,24.928,50.616,10.354,74.735c-2.532,4.192-4.484,5.461-8.956,2.102c-16.125-12.113-32.741-23.575-48.779-35.796
	C43.512,83.083,36.439,50.138,51.782,23.646C52.915,21.69,54.264,19.859,56.229,16.884z"/>
<path fill-rule="evenodd" clip-rule="evenodd" fill="#FFFFFF" d="M149.044,303.334c-12.545-18.445-14.736-37.111-7.622-56.92
	c3.808-10.596,10.447-19.332,19.53-26.01c16.421-12.072,33.064-23.844,49.398-36.029c4.536-3.387,6.518-1.852,8.942,2.279
	c13.351,22.738,10.307,53.58-9.941,71.223C190.633,274.194,169.684,287.95,149.044,303.334z"/>
</svg>
